<?xml version="1.0" standalone="no"?>
<!DOCTYPE svg PUBLIC "-//W3C//DTD SVG 20010904//EN"
 "http://www.w3.org/TR/2001/REC-SVG-20010904/DTD/svg10.dtd">
<svg version="1.0" xmlns="http://www.w3.org/2000/svg"
 width="512.000000pt" height="512.000000pt" viewBox="0 0 512.000000 512.000000"
 preserveAspectRatio="xMidYMid meet">

<g transform="translate(0.000000,512.000000) scale(0.100000,-0.100000)"
fill="#000000" stroke="none">
<path d="M825 4935 l-25 -24 0 -256 0 -255 -135 0 c-131 0 -137 -1 -160 -25
l-25 -24 0 -591 0 -591 25 -24 c23 -24 29 -25 160 -25 l135 0 0 -1455 0 -1456
25 -24 24 -25 1871 0 1871 0 24 25 25 24 0 1993 0 1993 -383 382 -382 383
-1513 0 -1513 0 -24 -25z m2935 -470 l0 -336 25 -24 24 -25 336 0 335 0 0
-1880 0 -1880 -1760 0 -1760 0 0 1400 0 1400 80 0 80 0 0 -1215 0 -1216 25
-24 24 -25 1551 0 1551 0 24 25 25 24 0 1551 0 1551 -25 24 -24 25 -456 0
-455 0 0 255 0 256 -25 24 -24 25 -1176 0 -1175 0 0 200 0 200 1400 0 1400 0
0 -335z m385 -5 l220 -220 -223 0 -222 0 0 220 c0 121 1 220 3 220 1 0 101
-99 222 -220z m-945 -700 l0 -480 -1280 0 -1280 0 0 480 0 480 1280 0 1280 0
0 -480z m959 -1362 c-1 -1079 -3 -1278 -14 -1253 -7 17 -153 352 -324 745
-186 427 -320 722 -332 733 -26 21 -67 22 -95 3 -11 -8 -146 -282 -319 -650
-164 -350 -302 -635 -306 -634 -4 2 -168 147 -363 323 -196 176 -366 324 -379
329 -60 22 -58 24 -412 -507 l-335 -502 0 1068 0 1067 1015 0 1016 0 24 25 25
24 0 256 0 255 400 0 400 0 -1 -1282z m-385 -815 c179 -414 329 -759 332 -768
6 -13 -133 -15 -1370 -15 -757 0 -1376 2 -1376 5 0 5 637 964 650 978 4 5 175
-143 380 -327 347 -312 376 -336 410 -336 25 0 43 7 57 23 11 12 146 289 299
615 153 325 281 589 285 585 3 -5 153 -346 333 -760z"/>
<path d="M902 4057 c-30 -32 -29 -87 1 -115 13 -12 31 -22 40 -22 15 0 17 -15
17 -142 l0 -141 -23 21 c-53 50 -137 13 -137 -59 0 -29 10 -44 63 -97 53 -52
68 -62 98 -62 29 0 44 10 97 63 l62 63 0 177 c0 165 1 177 18 177 56 0 83 97
39 138 -21 20 -34 22 -138 22 -108 0 -117 -2 -137 -23z"/>
<path d="M1382 4057 c-21 -23 -22 -30 -22 -298 0 -275 0 -276 23 -297 32 -30
87 -29 115 1 17 18 22 36 22 80 l0 57 98 0 c89 0 100 2 119 23 33 35 103 183
103 217 0 34 -70 182 -103 218 -20 21 -27 22 -177 22 -151 0 -157 -1 -178 -23z
m263 -177 c17 -39 17 -41 0 -80 -18 -39 -19 -40 -72 -40 l-53 0 0 80 0 80 53
0 c53 0 54 -1 72 -40z"/>
<path d="M2022 4057 c-21 -23 -22 -30 -22 -298 0 -348 -18 -319 201 -319 150
0 156 1 177 23 30 32 29 87 -1 115 -21 19 -34 22 -120 22 l-97 0 0 40 0 40 58
0 c71 0 102 25 102 81 0 54 -32 79 -103 79 l-57 0 0 40 0 40 98 0 c90 0 100 2
120 23 30 32 29 87 -1 115 -22 21 -33 22 -178 22 -150 0 -156 -1 -177 -23z"/>
<path d="M2582 4057 c-21 -23 -22 -30 -22 -298 0 -352 -25 -319 241 -319 249
0 239 -7 239 161 0 108 -2 117 -23 137 -20 19 -35 22 -98 22 -66 0 -78 -3 -97
-23 -14 -14 -22 -36 -22 -57 0 -21 8 -43 22 -57 l21 -23 -61 0 -62 0 0 160 0
160 138 0 c132 0 140 1 160 23 30 32 29 87 -1 115 -22 21 -32 22 -218 22 -191
0 -196 0 -217 -23z"/>
<path d="M2352 2779 c-114 -36 -216 -140 -252 -255 -68 -221 50 -443 269 -508
304 -90 586 200 491 505 -65 210 -294 326 -508 258z"/>
</g>
</svg>
