<?xml version="1.0" standalone="no"?>
<!DOCTYPE svg PUBLIC "-//W3C//DTD SVG 20010904//EN"
 "http://www.w3.org/TR/2001/REC-SVG-20010904/DTD/svg10.dtd">
<svg version="1.0" xmlns="http://www.w3.org/2000/svg"
 width="1600.000000pt" height="1200.000000pt" viewBox="0 0 1600.000000 1200.000000"
 preserveAspectRatio="xMidYMid meet">

<g transform="translate(0.000000,1200.000000) scale(0.100000,-0.100000)"
fill="#000000" stroke="none">
<path d="M7592 9189 c-745 -72 -1427 -430 -1909 -1004 -244 -291 -449 -679
-548 -1040 -61 -223 -105 -504 -105 -675 l0 -66 227 -217 227 -217 280 -1
c155 0 299 -4 321 -8 22 -5 35 -9 28 -10 -8 -1 -9 -10 -3 -30 7 -27 6 -29 -22
-35 -17 -3 -149 -6 -294 -6 l-263 0 -15 -52 c-8 -29 -38 -143 -66 -253 -28
-110 -87 -336 -131 -502 -43 -167 -79 -306 -79 -311 0 -4 35 -31 78 -60 42
-29 103 -70 135 -93 l57 -40 0 -279 c0 -154 4 -280 9 -280 4 0 21 -18 36 -40
15 -22 35 -40 43 -40 8 0 12 -3 9 -7 -4 -3 3 -21 14 -40 l21 -34 -41 -38 c-22
-21 -41 -46 -41 -57 0 -10 -6 -56 -14 -102 l-13 -83 81 -50 82 -49 -6 -60 c-4
-38 -2 -60 5 -60 6 0 7 -3 0 -8 -14 -10 -16 -23 -22 -144 -7 -136 7 -180 84
-255 150 -147 414 -182 710 -94 l68 20 130 153 c72 84 238 281 369 438 131
157 289 344 351 415 61 72 217 254 345 405 209 245 580 680 695 815 24 28 80
93 125 145 45 52 84 100 86 106 3 7 -52 99 -122 205 -70 107 -147 224 -170
262 l-44 67 -817 0 c-450 0 -829 3 -841 7 -17 4 -20 8 -11 14 10 6 10 11 0 23
-11 13 -11 16 0 16 12 0 12 2 1 9 -28 18 101 21 859 21 777 0 779 0 821 -21
24 -12 102 -55 174 -95 72 -41 134 -74 136 -74 3 0 8 16 11 35 3 19 20 65 38
102 40 84 150 197 230 236 177 86 390 73 545 -34 83 -57 176 -182 207 -281 5
-14 19 -13 144 13 151 31 372 84 377 90 2 2 6 24 8 47 3 42 1 44 -32 57 -321
124 -586 238 -800 345 l-75 38 -30 -25 c-51 -41 -94 -55 -162 -51 -77 5 -133
40 -178 112 -23 38 -30 63 -33 115 -3 57 0 73 25 121 66 126 219 155 337 65
47 -36 86 -116 86 -175 l0 -47 208 -101 c232 -113 339 -163 427 -199 141 -58
257 -103 268 -103 11 0 57 62 57 76 0 4 -31 50 -68 103 -37 53 -85 122 -107
154 -21 31 -43 57 -49 57 -6 0 -36 -9 -66 -21 -104 -40 -239 -14 -336 66 -85
70 -145 202 -145 318 0 50 -3 59 -22 67 -12 5 -121 47 -241 93 l-220 85 -26
-37 c-48 -66 -120 -120 -192 -143 -37 -12 -70 -19 -73 -17 -3 3 16 53 41 111
l46 105 -44 266 c-50 301 -53 285 40 242 30 -14 58 -25 63 -25 13 0 197 152
198 163 1 8 -139 173 -240 285 l-49 54 -50 -51 c-28 -28 -54 -51 -58 -51 -4 0
-34 159 -65 353 -32 193 -61 362 -64 375 -5 21 -3 22 22 12 15 -6 29 -9 30 -8
8 10 134 280 133 286 -1 13 -217 67 -403 102 -192 35 -539 49 -743 29z m1067
-2526 c53 -64 74 -135 69 -233 -7 -133 -64 -223 -172 -271 -64 -28 -173 -38
-181 -17 -6 15 234 557 247 558 3 0 20 -17 37 -37z m-1644 -161 c-3 -3 -11 0
-18 7 -9 10 -8 11 6 5 10 -3 15 -9 12 -12z m510 -222 c3 -6 -1 -7 -9 -4 -18 7
-21 14 -7 14 6 0 13 -4 16 -10z m560 -240 c3 -6 -1 -7 -9 -4 -18 7 -21 14 -7
14 6 0 13 -4 16 -10z m-2490 -222 c2 -20 1 -20 -11 -3 -7 10 -11 22 -8 27 8
13 17 2 19 -24z m38 -58 c3 -11 2 -18 -3 -15 -4 3 -10 14 -13 25 -3 11 -2 18
3 15 4 -3 10 -14 13 -25z m2412 -10 c-3 -5 -12 -10 -18 -10 -7 0 -6 4 3 10 19
12 23 12 15 0z m-2215 -244 c0 -2 -8 -10 -17 -17 -16 -13 -17 -12 -4 4 13 16
21 21 21 13z m71 -123 c-12 -20 -14 -14 -5 12 4 9 9 14 11 11 3 -2 0 -13 -6
-23z m176 -223 c0 -16 -1 -29 -2 -27 -13 15 -25 48 -16 43 6 -4 11 -2 11 3 0
6 2 11 3 11 2 0 4 -13 4 -30z m-7 -55 c0 -5 -5 -3 -10 5 -5 8 -10 20 -10 25 0
6 5 3 10 -5 5 -8 10 -19 10 -25z m700 -75 c-8 -5 -19 -10 -25 -10 -5 0 -3 5 5
10 8 5 20 10 25 10 6 0 3 -5 -5 -10z m-566 -79 c-8 -8 -34 -10 -38 -2 -3 4 6
7 19 7 14 0 22 -2 19 -5z m-251 -278 c-7 -2 -19 -2 -25 0 -7 3 -2 5 12 5 14 0
19 -2 13 -5z m47 -46 c0 -2 -15 -16 -32 -33 l-33 -29 29 33 c28 30 36 37 36
29z m-130 -82 c7 -9 8 -15 2 -15 -5 0 -12 7 -16 15 -3 8 -4 15 -2 15 2 0 9 -7
16 -15z m-75 -85 c3 -5 1 -10 -4 -10 -6 0 -11 5 -11 10 0 6 2 10 4 10 3 0 8
-4 11 -10z m26 -13 c-10 -9 -11 -8 -5 6 3 10 9 15 12 12 3 -3 0 -11 -7 -18z
m-111 -62 c7 -9 8 -15 2 -15 -5 0 -12 7 -16 15 -3 8 -4 15 -2 15 2 0 9 -7 16
-15z m31 -18 c-10 -9 -11 -8 -5 6 3 10 9 15 12 12 3 -3 0 -11 -7 -18z m-47
-27 c-6 -6 -10 -3 -10 10 0 13 4 16 10 10 7 -7 7 -13 0 -20z m-59 -40 c3 -5 1
-10 -4 -10 -6 0 -11 5 -11 10 0 6 2 10 4 10 3 0 8 -4 11 -10z m26 -13 c-10 -9
-11 -8 -5 6 3 10 9 15 12 12 3 -3 0 -11 -7 -18z m9 -321 c0 -2 -7 -7 -16 -10
-8 -3 -12 -2 -9 4 6 10 25 14 25 6z m-46 -25 c4 -5 -3 -7 -14 -4 -23 6 -26 13
-6 13 8 0 17 -4 20 -9z m423 3 c-3 -3 -12 -4 -19 -1 -8 3 -5 6 6 6 11 1 17 -2
13 -5z m-20 -50 c-3 -3 -12 -4 -19 -1 -8 3 -5 6 6 6 11 1 17 -2 13 -5z m68
-344 c3 -6 -1 -7 -9 -4 -18 7 -21 14 -7 14 6 0 13 -4 16 -10z m-248 -65 c0 -8
-4 -12 -9 -9 -5 3 -6 10 -3 15 9 13 12 11 12 -6z m-64 -2 c-7 -2 -19 -2 -25 0
-7 3 -2 5 12 5 14 0 19 -2 13 -5z m-13 -23 c-8 -5 -19 -10 -25 -10 -5 0 -3 5
5 10 8 5 20 10 25 10 6 0 3 -5 -5 -10z"/>
<path d="M8873 9018 c-16 -20 -98 -186 -127 -258 l-26 -63 36 -40 c20 -22 50
-69 67 -106 17 -36 31 -67 31 -68 1 -1 57 -13 126 -27 69 -14 186 -42 260 -62
126 -35 135 -36 145 -19 26 45 59 75 93 85 86 24 191 6 307 -52 233 -117 386
-328 336 -461 -9 -23 1 -36 113 -153 67 -71 151 -161 186 -201 63 -68 67 -71
113 -72 30 -1 47 3 47 11 0 7 -29 102 -65 213 l-64 200 -84 106 c-140 176
-342 375 -500 493 l-37 28 -21 -26 c-18 -23 -27 -26 -84 -26 -194 0 -475 176
-475 297 0 19 8 41 19 52 19 19 18 20 -52 49 -61 25 -241 87 -313 107 -12 3
-26 0 -31 -7z"/>
<path d="M8853 8318 l-11 -71 106 -121 c59 -67 129 -148 157 -181 27 -33 52
-64 56 -69 4 -5 38 14 76 41 37 28 107 74 155 103 53 32 85 57 81 64 -4 6 -17
26 -31 43 -13 18 -35 59 -47 90 l-24 58 -83 23 c-62 16 -407 92 -421 92 -2 0
-8 -32 -14 -72z"/>
<path d="M9500 7948 c-59 -37 -223 -151 -243 -168 -5 -4 70 -108 165 -231 95
-123 193 -252 218 -287 43 -60 46 -62 80 -57 65 11 70 15 70 48 0 41 -38 548
-46 605 -5 37 -10 44 -40 57 -20 8 -56 28 -80 45 -25 16 -48 30 -52 30 -4 0
-36 -19 -72 -42z"/>
<path d="M10020 7869 c-14 -6 -56 -9 -95 -8 l-70 2 1 -39 c1 -21 12 -169 25
-329 l23 -290 65 -32 c36 -18 83 -48 104 -68 l37 -35 152 75 c83 41 157 75
164 75 22 0 24 17 7 63 -16 43 -19 45 -89 67 -69 22 -73 22 -90 6 -41 -42 -87
-42 -160 0 -86 49 -126 157 -76 206 49 49 170 12 224 -69 21 -31 38 -42 93
-61 37 -13 68 -22 70 -20 6 6 35 81 33 84 -63 67 -382 384 -387 383 -3 0 -17
-5 -31 -10z"/>
<path d="M9067 7625 c-48 -42 -87 -78 -87 -80 0 -2 11 -21 25 -41 33 -49 55
-125 55 -194 l0 -56 242 -97 c144 -58 244 -94 246 -87 2 6 15 24 29 40 l24 29
-107 143 c-147 195 -324 418 -332 418 -4 0 -47 -34 -95 -75z"/>
<path d="M10380 7094 c-63 -30 -136 -69 -162 -85 l-47 -30 15 -34 c7 -18 17
-58 20 -89 l7 -55 186 -45 c102 -25 188 -42 192 -38 6 8 43 322 37 325 -1 1
-31 26 -65 55 -34 28 -63 52 -65 52 -2 0 -55 -25 -118 -56z"/>
<path d="M10705 6988 c-2 -7 -8 -65 -15 -128 -6 -63 -13 -127 -16 -142 -5 -23
-1 -28 30 -38 37 -12 56 -7 56 13 0 15 47 67 60 67 6 0 10 5 10 12 0 21 -73
213 -84 220 -17 12 -36 9 -41 -4z"/>
<path d="M10855 6992 c-11 -2 -23 -7 -28 -11 -10 -10 64 -202 81 -208 7 -3 15
-3 18 0 6 6 -35 210 -44 218 -4 3 -16 4 -27 1z"/>
<path d="M10165 6653 c-32 -54 -43 -30 96 -229 l98 -142 46 24 c25 12 70 26
99 29 l53 7 7 54 c3 30 9 94 13 143 l6 88 -184 36 c-101 20 -189 37 -196 37
-6 0 -23 -21 -38 -47z"/>
<path d="M10652 6488 c-17 -172 -18 -165 26 -187 78 -40 115 -107 125 -226 2
-29 3 -30 47 -27 34 3 50 10 67 30 46 54 53 83 53 215 l0 124 -47 -4 c-65 -6
-110 20 -145 83 -15 27 -28 56 -28 64 -1 26 -14 38 -51 45 l-36 7 -11 -124z"/>
<path d="M9042 5982 c-69 -25 -137 -84 -176 -152 -28 -50 -31 -63 -31 -145 0
-75 4 -98 24 -137 33 -65 96 -126 159 -156 48 -21 64 -24 140 -20 103 5 152
27 218 94 109 113 113 302 8 422 -85 97 -225 136 -342 94z"/>
<path d="M10823 5971 c-50 -9 -42 -1 -82 -76 -54 -104 -145 -187 -244 -224
-32 -11 -67 -21 -77 -21 -11 0 -20 -4 -20 -9 0 -6 -41 -101 -90 -212 -50 -111
-89 -203 -88 -203 2 -1 20 -9 40 -18 21 -10 44 -31 53 -48 8 -16 18 -30 21
-30 8 0 111 67 170 111 44 32 55 47 68 91 31 107 121 227 216 289 42 27 49 39
89 138 l44 109 -22 27 c-11 15 -21 41 -21 56 0 16 -3 28 -7 28 -5 -1 -27 -5
-50 -8z"/>
<path d="M10055 5804 c-66 -19 -169 -45 -230 -59 -60 -14 -117 -28 -126 -31
-12 -3 -19 -22 -24 -62 -24 -205 -131 -366 -294 -445 l-72 -34 91 -73 92 -73
50 11 c141 33 261 -14 322 -127 61 -114 43 -235 -50 -327 -70 -69 -133 -86
-270 -71 -15 1 -59 -43 -179 -182 l-158 -184 22 -41 c12 -23 24 -59 25 -81 4
-40 4 -40 82 -73 44 -18 112 -42 152 -53 l73 -21 67 40 c89 53 222 148 319
228 82 68 275 255 269 261 -2 2 -43 -16 -92 -40 -49 -25 -99 -47 -111 -51 -12
-4 -38 -29 -58 -55 -113 -148 -329 -220 -363 -121 -27 77 58 188 196 257 111
56 194 52 214 -9 4 -10 120 36 183 72 22 13 68 38 102 57 41 23 75 52 104 89
23 30 40 56 38 57 -2 2 -33 10 -69 19 -36 9 -92 26 -126 39 l-60 23 -55 -41
c-59 -44 -118 -77 -125 -70 -3 3 0 26 7 51 6 26 9 81 7 124 -6 97 -42 177
-111 246 l-50 50 29 23 c43 35 148 84 207 98 l52 11 67 145 c105 229 125 282
108 287 -29 9 -99 92 -111 132 -7 22 -15 40 -18 39 -3 -1 -60 -16 -126 -35z
m3 -204 c47 -44 19 -148 -50 -190 -97 -59 -189 21 -139 122 40 81 137 116 189
68z"/>
<path d="M10475 5144 c-123 -87 -145 -108 -145 -135 0 -13 -16 -55 -35 -93
-19 -39 -35 -73 -35 -76 0 -8 94 -46 145 -58 103 -25 91 -29 138 45 86 135
121 207 138 286 15 69 15 78 2 73 -46 -18 -66 -18 -91 1 l-27 20 -90 -63z"/>
<path d="M9550 4918 c-57 -39 -75 -72 -75 -137 0 -100 62 -161 164 -161 33 0
59 7 82 23 37 24 79 97 79 137 0 40 -42 113 -79 137 -47 32 -125 32 -171 1z"/>
<path d="M8849 3727 c-77 -89 -135 -163 -130 -165 12 -4 198 42 296 74 177 57
431 168 405 177 -8 3 -46 15 -85 28 -38 12 -82 28 -96 35 -23 11 -31 11 -65
-6 -48 -25 -99 -25 -147 -1 l-38 19 -140 -161z"/>
</g>
</svg>
