<?xml version="1.0" standalone="no"?>
<!DOCTYPE svg PUBLIC "-//W3C//DTD SVG 20010904//EN"
 "http://www.w3.org/TR/2001/REC-SVG-20010904/DTD/svg10.dtd">
<svg version="1.0" xmlns="http://www.w3.org/2000/svg"
 width="1200.000000pt" height="1200.000000pt" viewBox="0 0 1200.000000 1200.000000"
 preserveAspectRatio="xMidYMid meet">

<g transform="translate(0.000000,1200.000000) scale(0.100000,-0.100000)"
fill="#000000" stroke="none">
<path d="M3420 11270 c-351 -8 -426 -15 -607 -60 -516 -126 -982 -395 -1342
-776 -321 -339 -539 -734 -657 -1191 -68 -267 -82 -475 -90 -1408 -7 -815 13
-4537 26 -4696 22 -282 149 -674 317 -982 241 -443 606 -807 1058 -1059 243
-136 585 -262 824 -303 139 -25 585 -34 1711 -37 1128 -3 1120 -3 1135 45 21
73 26 1306 21 5657 -3 2560 -9 4685 -12 4722 -6 67 -6 68 -42 79 -44 15 -1812
21 -2342 9z m1530 -5256 l0 -4417 -677 7 c-1073 11 -1185 19 -1424 102 -594
205 -1031 668 -1195 1264 -34 124 -35 129 -46 445 -17 440 -17 4866 0 5255 10
239 14 287 36 365 161 589 566 1046 1118 1265 293 116 409 125 1556 128 l632
2 0 -4416z"/>
<path d="M3238 9110 c-84 -10 -163 -33 -252 -72 -310 -136 -510 -368 -583
-681 -13 -54 -17 -117 -17 -257 0 -174 2 -189 27 -263 99 -287 284 -493 559
-621 134 -63 174 -70 393 -71 190 0 190 0 285 33 339 118 582 370 672 697 31
115 32 364 0 477 -102 369 -375 644 -729 734 -104 26 -256 37 -355 24z"/>
<path d="M7005 11270 l-120 -5 -8 -600 c-10 -806 -1 -9742 10 -9827 4 -37 12
-70 16 -75 13 -13 1050 -16 1527 -4 472 11 558 20 791 80 214 55 391 124 589
227 568 300 1021 803 1258 1399 65 164 119 344 136 450 39 255 41 391 41 3150
0 2888 0 2872 -54 3105 -247 1062 -1069 1858 -2132 2065 -90 17 -191 28 -332
35 -207 10 -1506 10 -1722 0z m2116 -4735 c548 -96 930 -603 870 -1156 -15
-136 -34 -206 -86 -317 -60 -127 -126 -222 -220 -317 -410 -415 -1066 -411
-1489 8 -229 226 -328 509 -297 847 13 143 39 239 96 357 202 416 672 658
1126 578z"/>
</g>
</svg>
