<?xml version="1.0" standalone="no"?>
<!DOCTYPE svg PUBLIC "-//W3C//DTD SVG 20010904//EN"
 "http://www.w3.org/TR/2001/REC-SVG-20010904/DTD/svg10.dtd">
<svg version="1.0" xmlns="http://www.w3.org/2000/svg"
 width="920.000000pt" height="812.000000pt" viewBox="0 0 920.000000 812.000000"
 preserveAspectRatio="xMidYMid meet">

<g transform="translate(0.000000,812.000000) scale(0.100000,-0.100000)"
fill="#000000" stroke="none">
<path d="M4363 8014 c-10 -28 5 -230 22 -291 9 -32 22 -76 28 -98 8 -28 12
-174 12 -471 l0 -431 -27 -36 c-16 -19 -28 -43 -28 -51 0 -27 -54 -150 -77
-175 -12 -14 -27 -36 -33 -50 -16 -37 -123 -121 -204 -161 -69 -35 -71 -35
-206 -35 -151 0 -164 -4 -176 -58 -4 -18 -15 -48 -25 -67 -11 -19 -19 -44 -19
-56 0 -32 -20 -82 -35 -88 -8 -3 -17 -22 -21 -43 -4 -21 -19 -63 -35 -93 -15
-30 -31 -72 -34 -92 -4 -21 -11 -38 -16 -38 -5 0 -9 -7 -9 -15 0 -8 -16 -44
-35 -81 -19 -36 -35 -74 -35 -83 0 -10 -8 -29 -18 -42 -11 -13 -22 -44 -26
-68 -4 -24 -13 -53 -21 -64 -8 -12 -15 -31 -15 -42 0 -11 -12 -45 -26 -75 -14
-30 -30 -83 -34 -117 -5 -38 -16 -73 -29 -89 -12 -16 -21 -41 -21 -63 0 -50
-27 -197 -41 -223 -6 -12 -15 -115 -20 -242 -18 -430 -27 -502 -82 -599 -42
-73 -120 -157 -145 -157 -8 0 -36 -11 -64 -25 -67 -34 -191 -36 -231 -4 -15
11 -48 27 -73 36 -26 9 -59 25 -73 37 -65 54 -131 120 -136 137 -4 11 -21 42
-40 70 -21 32 -39 78 -50 127 -9 42 -23 89 -31 104 -11 20 -14 75 -14 241 0
126 -4 218 -10 222 -23 14 -57 -10 -95 -68 -22 -34 -41 -68 -43 -74 -2 -7 -8
-13 -13 -13 -5 0 -9 -6 -9 -13 0 -8 -9 -22 -20 -32 -11 -10 -32 -43 -47 -73
-15 -30 -37 -67 -49 -81 -11 -14 -25 -37 -29 -51 -4 -14 -13 -32 -20 -40 -11
-14 -58 -110 -99 -202 -9 -20 -16 -46 -16 -59 0 -12 -12 -37 -26 -56 -14 -18
-32 -58 -40 -89 -8 -31 -21 -66 -29 -77 -8 -12 -15 -40 -15 -64 0 -23 -4 -44
-9 -47 -9 -6 -24 -60 -42 -156 -7 -36 -17 -74 -22 -85 -18 -33 -36 -230 -36
-390 -1 -148 11 -247 44 -365 8 -30 15 -69 15 -85 0 -17 11 -47 25 -67 14 -20
25 -49 25 -63 0 -14 11 -43 25 -63 14 -20 25 -44 25 -53 0 -9 11 -32 23 -51
13 -19 27 -47 31 -63 4 -16 15 -40 25 -54 10 -14 30 -48 44 -76 13 -27 34 -59
46 -69 12 -11 21 -25 21 -32 0 -7 17 -33 37 -58 42 -49 88 -113 116 -159 10
-17 46 -64 80 -106 34 -42 71 -88 82 -103 31 -42 158 -202 166 -208 29 -23 40
-131 16 -164 -26 -36 -135 -41 -195 -10 -15 8 -32 14 -38 14 -6 0 -17 7 -24
15 -7 8 -31 20 -54 26 -22 6 -50 19 -61 29 -22 20 -103 55 -110 48 -3 -3 3
-13 12 -24 31 -33 230 -214 236 -214 3 0 39 -32 79 -72 85 -83 182 -165 224
-190 16 -10 50 -32 76 -50 26 -18 62 -43 80 -55 45 -30 198 -105 223 -109 49
-8 59 -11 63 -23 7 -22 88 -49 167 -55 21 -2 30 -8 30 -20 0 -17 21 -36 41
-36 7 0 11 13 10 29 0 16 -4 29 -7 28 -4 -1 -16 9 -28 23 -13 14 -20 20 -17
13 4 -6 2 -14 -4 -18 -9 -6 -15 16 -11 39 1 5 -6 3 -15 -5 -16 -12 -17 -12
-11 3 3 10 1 20 -4 24 -6 3 -9 23 -6 45 2 21 1 37 -3 36 -5 -1 -8 3 -8 8 0 6
5 9 11 7 7 -2 6 2 -1 11 -7 8 -8 17 -4 21 4 4 2 6 -5 4 -6 -1 -11 2 -11 7 0 6
5 8 11 7 7 -2 8 0 4 5 -5 4 -13 8 -18 8 -5 0 -9 5 -8 10 1 6 4 9 8 8 4 -1 8 4
8 12 0 8 -4 12 -9 9 -7 -5 -12 10 -5 20 1 2 -6 13 -16 23 -16 19 -16 21 3 38
19 17 19 19 4 37 -10 10 -14 18 -10 18 4 0 2 9 -4 20 -6 11 -16 17 -22 14 -8
-5 -9 -1 -5 10 4 10 3 15 -3 11 -11 -7 -9 23 3 41 4 7 0 11 -11 10 -9 0 -18 4
-18 9 -1 6 1 9 5 8 4 -1 8 4 8 11 0 8 -11 12 -29 11 -18 -2 -27 2 -25 9 3 6 9
10 14 9 5 -1 10 5 10 12 0 11 -3 12 -14 3 -11 -9 -13 -7 -9 14 4 22 1 25 -17
20 -17 -4 -18 -6 -4 -11 13 -5 11 -8 -10 -19 -20 -9 -24 -9 -15 0 9 9 8 16 -6
32 -16 20 -16 20 0 7 13 -10 18 -10 18 -2 0 7 4 10 8 7 5 -3 9 1 9 9 0 8 -5
11 -10 8 -6 -4 -8 1 -4 11 4 10 3 15 -3 11 -6 -3 -10 2 -11 12 0 10 -3 13 -5
6 -3 -7 0 -22 6 -35 11 -22 11 -22 -5 -3 -9 11 -14 30 -12 43 3 17 1 20 -9 11
-10 -8 -12 -6 -9 10 2 12 -1 21 -6 21 -6 0 -7 5 -4 10 3 6 -4 10 -17 11 -22 0
-22 1 -3 9 18 8 18 9 2 9 -11 1 -15 5 -11 13 5 8 2 9 -11 4 -16 -6 -16 -4 -4
11 12 15 12 16 -5 10 -16 -6 -17 -5 -6 8 11 13 11 16 -1 13 -8 -2 -13 3 -11
10 1 6 -3 12 -9 12 -5 0 -7 5 -4 10 3 6 -2 10 -12 10 -15 0 -16 2 -3 10 13 8
13 10 -2 10 -11 0 -15 5 -12 15 4 8 -8 27 -28 47 -18 17 -26 27 -18 22 9 -5 7
-1 -3 9 -11 9 -15 17 -11 17 5 0 2 5 -6 10 -13 8 -13 10 0 10 10 0 7 5 -7 15
-14 10 -20 21 -16 32 4 10 2 14 -4 10 -7 -5 -9 1 -6 15 3 14 1 18 -4 12 -6 -9
-11 -8 -21 2 -7 8 -8 14 -3 14 6 0 10 11 9 24 -1 14 -6 22 -10 20 -4 -3 -5
-12 -2 -22 5 -14 4 -14 -4 -3 -7 10 -7 21 0 35 11 20 10 20 -7 6 -10 -8 -16
-10 -12 -3 4 6 1 14 -5 16 -10 4 -10 6 1 6 9 1 8 6 -6 19 -10 9 -17 16 -14 15
7 -4 28 41 24 50 -2 4 -10 7 -16 7 -8 0 -8 -3 1 -9 10 -6 10 -10 -3 -21 -13
-11 -14 -10 -9 5 5 11 3 16 -3 12 -5 -3 -9 4 -9 16 1 13 -4 21 -12 19 -8 -1
-11 2 -8 7 4 5 2 12 -4 16 -6 4 -8 10 -5 15 3 4 -2 13 -10 20 -8 7 -15 24 -15
39 0 15 -6 33 -12 40 -10 11 -10 13 0 7 7 -5 12 -1 12 9 0 9 5 13 10 10 8 -5
7 -11 -1 -21 -10 -12 -10 -15 2 -12 8 2 15 -7 17 -19 2 -13 -1 -23 -7 -23 -6
0 -11 -4 -11 -10 0 -5 6 -9 13 -7 7 1 12 -7 11 -20 -1 -13 3 -20 8 -17 4 3 7
0 6 -7 -2 -7 4 -14 12 -14 8 0 14 -7 12 -15 -2 -8 0 -12 4 -7 4 4 17 -1 28
-10 21 -18 21 -18 3 3 -9 11 -14 24 -10 28 4 3 8 14 9 22 1 9 -1 13 -4 9 -4
-4 -7 -11 -7 -16 0 -5 -4 -8 -10 -6 -5 1 -9 7 -7 12 2 6 0 7 -4 3 -4 -4 -13
-3 -21 4 -11 9 -10 15 8 34 l22 23 -23 -4 c-19 -4 -22 -1 -18 20 3 13 2 24 -1
23 -19 -2 -22 4 -11 18 11 12 11 15 -1 12 -8 -2 -13 3 -11 12 3 11 -2 10 -17
-4 -12 -11 -22 -17 -22 -15 -9 31 -5 67 9 84 13 15 10 14 -10 -3 -28 -25 -40
-19 -33 17 2 12 -1 21 -8 21 -7 0 -6 4 3 10 9 6 11 10 3 10 -7 0 -10 7 -6 17
5 12 3 14 -7 8 -8 -5 -11 -4 -6 3 3 6 2 13 -2 16 -5 3 -9 16 -8 28 1 13 -3 27
-9 31 -6 5 -4 7 5 4 8 -2 14 -11 14 -19 -1 -8 5 -15 12 -15 12 0 12 4 0 22
-10 15 -11 27 -4 41 9 18 8 18 -5 2 -15 -19 -33 -25 -23 -9 4 5 0 12 -6 14 -8
4 -7 6 4 6 9 1 19 5 22 10 4 5 -3 7 -14 4 -12 -3 -20 0 -20 6 0 7 4 10 9 6 5
-3 13 0 17 6 4 8 3 9 -5 5 -12 -8 -9 32 5 56 4 7 4 10 -1 6 -14 -13 -45 11
-38 29 4 10 2 14 -4 10 -7 -5 -9 1 -6 15 3 17 2 19 -5 10 -7 -11 -11 -8 -16
11 -3 14 -9 33 -13 43 -5 13 -3 15 8 9 12 -8 12 -6 1 8 -8 9 -11 26 -7 39 5
18 4 20 -4 8 -9 -13 -11 -13 -11 0 0 9 6 22 13 29 10 10 9 11 -3 6 -12 -4 -16
1 -16 19 0 14 3 23 7 20 4 -2 11 1 15 7 4 8 3 9 -5 5 -6 -4 -14 0 -18 9 -3 10
0 21 8 26 11 7 11 9 -3 9 -13 0 -16 6 -12 26 3 17 -2 34 -13 47 -10 11 -13 17
-7 14 18 -10 24 16 9 37 -8 10 -11 25 -8 34 5 11 3 13 -8 7 -11 -6 -11 -5 -2
5 6 7 9 20 6 29 -4 9 -3 13 1 10 8 -8 18 -47 18 -74 0 -11 2 -14 5 -7 3 6 10
9 16 5 8 -5 8 -2 0 8 -7 9 -11 25 -8 38 2 12 0 19 -6 15 -6 -3 -8 12 -6 40 3
25 1 43 -3 41 -5 -3 -12 0 -16 6 -4 8 -3 9 4 5 7 -4 12 -1 13 6 0 7 2 21 4 30
2 10 -1 20 -5 23 -5 3 -7 -3 -5 -15 2 -11 0 -22 -4 -24 -10 -6 -8 40 2 50 4 4
1 14 -6 22 -10 13 -9 14 1 8 10 -6 11 -1 7 21 -5 25 -4 26 4 6 14 -31 18 -29
13 6 -3 24 -8 28 -33 26 -15 -1 -27 0 -26 4 1 3 -3 7 -8 9 -6 1 -10 -2 -10 -7
0 -5 -3 -12 -7 -16 -9 -9 -5 17 6 33 5 8 12 10 19 4 19 -13 62 -8 59 8 -3 11
0 11 12 0 18 -14 22 -1 6 18 -6 6 -7 10 -4 7 4 -3 14 1 23 8 14 10 14 10 4 -4
-10 -12 -10 -19 1 -34 7 -10 11 -26 9 -36 -3 -9 1 -28 8 -40 7 -13 13 -27 14
-31 0 -3 3 -9 7 -13 10 -11 3 17 -11 43 -7 13 -10 28 -7 35 2 7 5 4 5 -6 1
-10 5 -15 11 -12 6 4 7 -1 3 -11 -4 -10 -2 -15 3 -11 6 3 11 -8 12 -26 2 -17
7 -36 12 -42 5 -7 6 -16 2 -20 -4 -5 -1 -5 6 -1 7 4 10 11 7 16 -3 5 -1 11 4
14 5 4 8 -5 7 -18 -2 -17 1 -23 10 -19 8 3 12 9 9 13 -9 14 23 5 43 -13 10 -9
22 -14 27 -10 4 5 5 2 1 -5 -6 -10 -11 -10 -22 -1 -11 9 -14 8 -14 -2 0 -8 -5
-6 -13 5 -12 17 -14 17 -28 -1 -13 -17 -13 -17 5 -3 18 14 19 13 13 -2 -4 -13
-1 -16 14 -13 13 3 19 -2 19 -13 0 -15 2 -15 11 -2 8 12 9 12 7 -5 -1 -11 1
-21 5 -22 4 -2 21 -18 38 -35 17 -18 28 -27 24 -20 -3 6 -1 12 4 12 6 0 11 -6
11 -12 0 -9 4 -8 11 2 9 12 10 11 6 -6 -3 -13 1 -21 9 -21 7 0 11 3 9 7 -2 4
2 7 10 7 8 0 12 -4 9 -9 -10 -16 7 -28 26 -18 13 7 21 7 25 0 4 -6 11 -7 17
-4 6 4 8 2 5 -3 -4 -6 0 -16 8 -23 8 -7 15 -9 15 -5 0 5 8 1 18 -8 18 -17 32
-14 32 7 0 6 -4 5 -9 -2 -6 -10 -10 -10 -21 3 -11 13 -10 14 5 9 14 -6 16 -4
11 7 -4 8 3 3 15 -11 22 -24 22 -25 16 -2 -3 12 -1 20 4 16 5 -3 9 -11 9 -19
0 -8 4 -16 9 -19 5 -4 7 4 4 16 -4 22 -4 22 12 -2 l16 -25 -5 25 c-5 22 -4 22
10 -5 14 -29 15 -29 11 -4 -2 15 1 26 8 26 7 0 10 -9 8 -21 -3 -14 2 -11 16
12 11 17 24 32 27 32 4 0 1 -7 -6 -14 -8 -11 -9 -20 -1 -33 8 -14 10 -15 11
-3 0 13 1 13 10 0 9 -13 10 -13 10 0 0 13 1 13 10 0 8 -12 10 -12 10 -1 0 10
3 11 13 3 10 -8 13 -6 14 11 2 17 0 19 -7 7 -9 -13 -10 -13 -10 0 0 13 -1 13
-10 0 -8 -12 -9 -10 -7 7 2 12 7 26 11 30 4 5 6 3 4 -2 -2 -6 1 -10 7 -10 5 0
9 3 8 6 -3 9 45 4 54 -5 5 -5 2 -6 -6 -1 -9 5 -12 4 -7 -3 4 -7 -1 -10 -13 -7
-15 3 -18 -1 -13 -18 6 -20 7 -20 10 -3 3 15 6 16 13 5 7 -11 9 -11 9 -1 0 7
5 10 10 7 6 -4 9 -1 8 7 -2 7 3 12 10 11 14 -3 16 13 2 22 -5 3 -10 0 -10 -7
0 -8 -5 -6 -11 5 -6 10 -8 21 -5 24 3 4 6 1 6 -6 0 -7 5 -9 10 -6 8 5 7 11 -1
21 -9 11 -15 11 -25 3 -8 -6 -11 -16 -7 -22 4 -6 1 -7 -6 -3 -10 6 -9 12 1 24
8 10 13 33 11 52 -2 19 -3 44 -4 55 0 10 -5 26 -12 35 -10 13 -10 13 5 1 10
-7 18 -23 18 -35 2 -85 2 -87 15 -76 13 11 14 27 3 46 -4 5 -5 19 -4 30 2 10
-1 25 -7 33 -14 17 -18 43 -5 35 5 -3 7 -9 4 -12 -4 -3 3 -16 15 -28 13 -14
17 -24 10 -29 -6 -3 -11 -12 -11 -18 1 -7 10 -1 21 13 12 13 19 18 18 10 -5
-21 22 -81 33 -74 5 3 5 11 -2 19 -7 9 -6 16 5 25 8 7 13 16 10 20 -3 5 -1 11
5 15 6 4 7 11 4 17 -4 7 -2 8 5 4 9 -6 9 -11 0 -22 -6 -8 -8 -14 -4 -14 5 0 1
-8 -8 -18 -10 -10 -14 -22 -10 -26 5 -4 9 -12 9 -17 3 -22 5 -23 13 -10 6 9 9
6 9 -12 l0 -26 -19 22 c-10 12 -18 17 -19 12 0 -6 5 -16 12 -23 9 -9 6 -11
-11 -7 -19 3 -21 1 -16 -18 4 -15 3 -18 -3 -9 -7 11 -11 10 -16 -4 -3 -9 -4
-19 -1 -22 3 -3 5 0 5 7 0 7 5 9 11 6 6 -4 13 2 16 13 3 14 11 19 25 17 13 -3
22 2 25 15 3 11 12 17 22 15 22 -4 24 23 4 46 -12 14 -11 18 4 30 16 13 17 12
5 -3 -11 -14 -10 -18 7 -30 12 -8 18 -19 13 -24 -4 -4 2 -2 13 6 11 8 21 15
23 16 2 1 -4 4 -13 8 -11 4 -14 2 -9 -7 5 -8 2 -7 -9 2 -22 18 -21 21 4 16 16
-3 19 0 15 13 -5 13 -2 13 10 -3 16 -20 16 -20 12 1 -3 13 0 21 7 21 7 0 11
-7 8 -16 -2 -9 2 -6 9 7 8 12 18 19 23 15 6 -4 1 3 -10 16 -12 15 -14 21 -5
16 26 -16 43 -15 29 1 -9 11 -8 15 4 20 9 3 21 3 27 -1 6 -4 9 -3 8 2 -1 4 4
18 11 31 7 13 10 30 7 37 -2 7 3 19 12 27 15 12 16 11 4 -4 -11 -13 -11 -18 0
-24 7 -4 10 -4 6 0 -4 5 5 27 19 50 16 25 20 35 9 27 -14 -12 -16 -12 -10 3 3
9 11 16 18 16 6 0 4 5 -4 10 -12 8 -12 10 5 10 17 0 17 2 5 10 -12 8 -12 10 5
10 17 0 17 2 5 10 -13 8 -13 10 2 10 12 0 15 5 11 17 -5 12 -3 14 7 8 8 -5 11
-4 7 2 -3 5 1 22 9 38 13 25 13 26 -1 15 -13 -11 -14 -10 -9 4 3 9 11 16 18
16 6 0 4 5 -4 10 -12 8 -12 10 5 10 17 0 17 2 5 10 -8 5 -10 10 -4 10 7 0 15
7 18 16 5 14 4 15 -9 4 -13 -11 -14 -10 -9 4 3 9 11 16 16 16 6 0 6 6 -1 14
-9 11 -9 16 0 22 8 5 9 3 4 -6 -5 -9 -4 -11 4 -6 6 4 8 13 4 19 -12 19 -10 31
7 39 12 5 11 7 -5 8 -20 1 -20 2 0 9 11 5 20 18 20 34 1 16 -2 24 -9 20 -6 -4
-4 2 5 13 16 18 16 36 4 109 -4 22 -2 26 5 15 8 -12 10 -11 10 7 0 12 3 28 6
37 3 9 1 16 -6 16 -6 0 -8 -5 -4 -12 5 -9 2 -9 -9 1 -18 15 -23 26 -7 16 6 -3
10 2 10 12 0 14 2 15 9 4 5 -8 7 10 6 45 -2 34 2 65 8 73 9 12 9 13 0 7 -8 -4
-13 -2 -13 8 0 8 4 18 10 21 11 7 3 95 -11 112 -7 7 -6 14 1 18 6 3 7 11 4 17
-4 7 -2 8 5 4 9 -6 9 -11 1 -21 -7 -9 -7 -15 3 -23 10 -8 12 -5 11 16 -1 15 1
32 5 37 8 15 10 36 3 31 -4 -2 -7 11 -7 29 0 18 4 31 9 27 5 -3 6 3 3 12 -5
14 -3 17 8 13 8 -4 17 -1 21 5 4 7 3 8 -4 4 -7 -4 -12 -1 -13 6 0 7 -2 21 -4
31 -2 9 1 15 6 11 5 -3 7 -9 4 -14 -3 -5 -1 -11 4 -14 5 -3 7 8 6 24 -1 17 2
30 9 30 6 0 4 5 -4 10 -8 5 -10 10 -4 10 16 0 23 46 10 61 -8 9 -7 10 3 4 11
-6 13 -4 8 9 -5 11 -3 15 5 10 8 -5 9 0 5 15 -4 18 -3 20 8 11 11 -9 12 -7 8
9 -3 14 -1 21 8 21 11 0 11 2 -1 10 -12 8 -12 10 5 10 15 0 17 3 7 9 -11 7
-11 9 2 14 9 4 16 12 16 19 0 9 -3 8 -10 -2 -21 -33 -8 6 15 47 14 23 23 43
19 43 -5 0 1 7 12 16 10 8 12 12 4 8 -13 -7 -13 -5 -1 9 7 9 11 17 7 17 -4 0
1 11 10 25 9 14 19 23 23 20 4 -2 8 2 8 10 0 8 -3 12 -6 10 -4 -2 9 29 29 69
19 40 39 71 44 68 5 -3 6 3 3 12 -5 13 -1 19 14 23 16 4 17 8 7 14 -10 7 -11
9 0 9 7 0 10 5 7 10 -3 6 -1 10 4 10 6 0 11 7 11 15 0 9 7 18 15 21 8 4 12 10
9 15 -3 5 0 9 7 9 7 0 10 3 6 6 -3 4 2 14 11 23 10 9 13 14 7 11 -6 -3 0 5 13
16 14 12 22 26 18 32 -3 5 10 26 30 47 19 21 33 44 30 51 -3 8 0 13 7 11 7 -1
11 6 11 15 -1 10 2 15 7 12 5 -3 9 2 9 10 0 8 16 27 35 42 19 14 32 31 29 36
-3 5 2 18 12 28 35 35 43 48 36 56 -4 5 0 3 8 -3 12 -9 15 -7 16 12 2 20 37
68 46 60 1 -2 12 9 22 23 20 27 19 27 0 12 -11 -8 -4 0 15 17 20 18 33 33 29
33 -5 0 0 8 10 18 9 11 20 17 24 15 4 -2 5 4 1 13 -5 13 -3 15 7 9 10 -6 12
-4 7 9 -4 10 -3 15 3 11 6 -3 10 1 10 9 0 8 5 18 12 22 7 5 8 3 3 -7 -8 -12
-6 -12 9 0 13 11 14 16 4 22 -10 7 -10 9 2 10 8 1 18 1 22 0 4 0 4 7 1 16 -4
11 -3 14 5 9 7 -4 12 -1 12 9 0 9 4 13 10 10 5 -3 12 6 16 20 3 14 9 23 12 20
4 -3 16 17 29 45 12 28 28 50 37 50 9 0 13 6 10 13 -3 8 3 20 13 28 17 13 17
13 3 -6 -14 -18 -14 -19 1 -7 10 7 15 21 12 31 -3 12 4 25 18 35 16 11 19 16
9 17 -8 0 -4 5 9 10 20 8 21 12 10 25 -10 12 -10 15 2 12 8 -2 13 3 11 12 -2
8 5 20 14 27 10 7 12 13 6 13 -9 0 -10 5 -3 19 6 10 7 21 4 25 -3 3 2 6 13 6
14 0 16 2 6 9 -11 7 -11 9 2 14 19 8 21 43 4 50 -7 3 -4 6 7 6 17 1 17 3 5 11
-13 9 -13 10 0 10 13 0 13 1 0 10 -12 8 -12 10 5 10 17 0 17 2 5 10 -13 9 -13
10 0 10 13 0 13 1 0 10 -9 6 -10 10 -3 10 7 0 10 10 7 27 -3 15 0 30 8 34 10
7 10 9 -2 9 -13 0 -13 1 0 10 13 9 13 10 0 10 -13 0 -13 1 0 10 13 9 13 10 0
10 -13 0 -13 1 0 10 13 9 13 10 0 10 -13 0 -13 1 0 10 13 9 13 10 0 10 -13 0
-13 1 0 10 8 5 10 10 4 10 -6 0 -10 20 -9 48 1 26 -4 50 -9 54 -7 5 -5 8 4 8
13 0 13 1 0 10 -9 6 -10 10 -3 10 8 0 9 9 3 30 -5 19 -5 30 1 30 6 0 7 5 4 10
-4 6 -1 17 5 25 19 23 63 -2 155 -90 23 -22 73 -70 111 -106 38 -37 85 -85
105 -107 20 -23 40 -38 43 -35 3 4 6 1 6 -6 0 -21 52 -81 64 -74 6 3 8 3 4 -1
-7 -9 116 -196 137 -208 7 -4 16 -19 19 -33 4 -14 11 -25 17 -25 6 0 7 -4 4
-10 -3 -5 -1 -10 5 -10 6 0 8 -4 5 -10 -3 -5 -1 -10 4 -10 6 0 10 -3 9 -7 -4
-16 14 -53 23 -48 5 3 6 0 3 -8 -3 -8 2 -20 10 -27 9 -7 13 -16 10 -21 -3 -5
-1 -9 4 -9 5 0 13 -8 16 -17 4 -10 15 -34 25 -53 11 -19 16 -39 13 -44 -3 -5
1 -6 8 -1 10 6 12 4 7 -9 -4 -10 -3 -15 3 -11 6 3 10 -1 10 -9 0 -9 6 -16 13
-16 8 0 7 -4 -3 -10 -11 -7 -11 -10 -2 -10 7 0 10 -4 7 -10 -3 -5 -1 -10 5
-10 6 0 9 -4 5 -9 -3 -5 2 -17 11 -25 10 -11 11 -16 3 -16 -7 0 -2 -9 11 -20
15 -13 18 -20 9 -20 -8 0 -10 -3 -4 -8 6 -4 12 -18 13 -31 2 -13 10 -31 18
-38 20 -20 17 -28 -3 -12 -17 13 -17 13 0 -7 9 -11 14 -24 10 -27 -3 -4 0 -7
8 -7 11 0 11 -2 -1 -10 -12 -8 -12 -10 5 -10 17 0 17 -2 5 -10 -9 -6 -11 -10
-3 -10 7 0 10 -7 6 -17 -5 -12 -3 -14 8 -8 11 7 12 6 3 -6 -13 -17 2 -103 17
-94 5 4 5 -4 -1 -19 -7 -20 -6 -24 5 -20 10 4 12 0 8 -15 -3 -13 -1 -21 6 -21
7 0 9 5 5 12 -5 7 -3 8 6 3 10 -6 9 -11 -5 -22 -16 -11 -14 -17 6 -15 3 1 6
-5 6 -13 0 -8 -5 -11 -11 -8 -6 4 -5 0 2 -9 10 -12 10 -17 1 -20 -8 -3 -6 -9
5 -21 13 -12 14 -17 4 -17 -10 0 -10 -2 1 -9 11 -7 11 -9 0 -14 -9 -4 -10 -6
-2 -6 7 -1 10 -8 6 -18 -4 -10 -2 -14 4 -10 5 3 10 0 10 -8 0 -8 -3 -12 -6
-10 -4 2 -7 -36 -6 -85 0 -48 3 -86 8 -83 4 2 7 -1 7 -6 0 -6 -6 -11 -12 -11
-9 0 -8 -4 2 -10 8 -5 10 -10 4 -10 -11 0 -10 -51 2 -72 6 -10 5 -11 -7 -1
-13 11 -15 8 -11 -20 3 -17 10 -35 16 -39 7 -5 3 -8 -9 -8 -16 0 -17 -2 -5 -9
8 -6 18 -7 24 -4 5 3 6 1 2 -6 -4 -6 -11 -9 -16 -6 -5 3 -5 -9 0 -26 7 -24 6
-28 -3 -20 -10 8 -12 0 -10 -39 2 -28 0 -50 -6 -50 -5 0 -8 -8 -6 -17 2 -10 4
-18 5 -18 1 0 3 -19 4 -42 1 -28 -2 -39 -9 -33 -6 5 -10 0 -10 -15 0 -18 3
-21 13 -13 9 8 11 7 6 -6 -3 -9 -11 -16 -18 -16 -7 0 -7 -3 -1 -8 6 -4 11 -13
13 -21 2 -11 0 -12 -10 -4 -10 9 -13 4 -14 -24 -1 -24 1 -31 7 -22 6 9 7 1 3
-21 -4 -19 -8 -45 -8 -57 -1 -13 -8 -23 -16 -24 -10 0 -8 -3 5 -9 11 -5 15 -9
9 -9 -5 -1 -10 -21 -9 -45 0 -26 -4 -42 -10 -40 -6 3 -10 -18 -9 -53 0 -32 -5
-61 -10 -65 -8 -6 -8 -8 0 -8 9 0 11 -31 4 -50 -1 -3 -2 -18 -1 -35 5 -118 8
-152 14 -162 5 -7 5 -19 1 -25 -4 -7 -4 -10 1 -6 7 7 35 -33 39 -57 1 -5 6
-16 10 -24 7 -10 5 -12 -5 -6 -8 5 -6 0 4 -12 10 -11 17 -27 15 -34 -2 -8 3
-13 11 -11 12 3 12 1 0 -14 -8 -10 -9 -15 -4 -12 6 3 15 0 22 -7 9 -9 9 -15 2
-17 -7 -2 -3 -10 7 -18 14 -12 16 -12 9 -1 -5 10 -4 12 3 7 7 -4 12 -14 12
-22 0 -8 6 -14 14 -14 10 0 13 -7 11 -21 -3 -17 -1 -18 9 -10 11 9 14 8 12 -5
0 -10 14 -25 37 -36 20 -11 37 -25 37 -31 0 -7 5 -5 10 3 8 13 10 13 10 -2 0
-17 15 -19 40 -3 13 8 13 7 1 -8 -9 -12 -10 -17 -2 -17 7 0 10 -4 7 -8 -2 -4
5 -9 17 -9 12 -1 31 -4 42 -6 11 -2 26 1 34 7 11 8 13 8 7 -1 -4 -8 -1 -13 9
-13 10 0 13 5 9 12 -5 7 -3 8 7 2 8 -5 34 -9 59 -9 25 0 51 -4 59 -9 10 -6 12
-5 7 2 -4 7 -3 12 3 12 5 0 12 -6 14 -12 3 -7 6 -4 6 6 1 20 1 20 16 0 13 -18
14 -18 8 6 -5 24 -5 24 9 6 11 -13 17 -16 22 -7 4 6 12 8 18 5 7 -4 8 -2 4 5
-4 6 -11 9 -16 6 -5 -3 -12 0 -16 6 -4 7 -3 9 4 5 6 -3 14 -2 17 4 4 7 11 8
18 1 7 -5 15 -11 18 -13 9 -5 39 23 39 36 0 6 -5 4 -11 -4 -7 -10 -9 -11 -7
-2 2 8 6 12 10 10 3 -2 15 5 25 15 11 9 23 14 26 10 4 -3 7 0 7 8 0 11 2 11
10 -1 8 -12 10 -12 11 5 l0 20 9 -20 c8 -19 9 -19 9 2 1 12 6 25 13 29 6 4 8
3 4 -4 -3 -6 -1 -14 5 -18 7 -4 9 -3 6 2 -10 16 10 38 36 39 20 2 24 -2 22
-17 -4 -17 -2 -18 12 -6 12 9 15 9 9 1 -4 -8 -2 -13 6 -14 7 0 4 -4 -7 -9 -15
-6 -16 -9 -4 -9 15 -1 17 -6 20 -56 1 -14 6 -22 13 -19 6 3 2 -2 -8 -10 -20
-16 -20 -16 0 -17 18 0 18 -1 -1 -9 l-20 -9 20 -1 c19 -1 19 -2 1 -9 -17 -7
-17 -8 -2 -24 16 -16 16 -17 0 -17 -17 0 -17 -1 1 -13 11 -9 14 -16 7 -20 -5
-4 -8 -16 -5 -27 3 -11 0 -20 -6 -20 -8 0 -9 -6 -3 -17 7 -15 9 -98 2 -98 -2
0 -6 -25 -12 -72 -1 -7 -5 -10 -10 -7 -5 3 -6 10 -3 15 9 14 15 53 8 45 -7 -7
-12 -25 -17 -61 -1 -11 3 -26 8 -34 9 -12 8 -13 -3 -6 -11 6 -13 4 -8 -8 4
-10 1 -17 -6 -17 -8 0 -6 -4 3 -10 12 -8 12 -10 1 -10 -10 0 -11 -3 -2 -14 9
-11 9 -16 0 -22 -8 -5 -9 -3 -4 6 5 9 4 11 -4 6 -9 -6 -9 -11 1 -24 11 -13 11
-14 -1 -8 -9 6 -12 5 -9 -5 3 -8 -1 -20 -8 -27 -7 -7 -11 -21 -9 -32 2 -11 0
-20 -5 -20 -5 0 -7 -9 -5 -20 2 -11 0 -20 -5 -20 -5 0 -7 -9 -5 -20 2 -11 0
-20 -6 -20 -5 0 -8 -3 -7 -7 2 -13 -14 -67 -24 -80 -5 -7 -7 -17 -3 -23 3 -5
0 -10 -7 -10 -9 0 -9 -3 2 -10 11 -7 11 -10 2 -10 -7 0 -10 -4 -7 -10 3 -5 0
-10 -7 -10 -9 0 -9 -3 2 -10 13 -9 13 -10 0 -10 -13 0 -13 -1 0 -10 10 -6 11
-10 3 -10 -7 0 -13 -5 -13 -11 0 -5 4 -7 10 -4 6 3 7 -1 4 -9 -3 -9 -11 -13
-18 -10 -6 3 -3 -1 7 -9 17 -14 17 -15 0 -22 -17 -6 -17 -7 1 -21 14 -10 16
-14 5 -14 -12 0 -12 -2 1 -10 13 -9 13 -10 0 -10 -12 -1 -11 -3 3 -11 9 -6 15
-14 12 -19 -7 -11 30 -82 39 -73 3 3 6 1 6 -6 0 -16 26 -42 34 -34 3 4 6 -1 6
-10 0 -9 5 -19 12 -23 7 -5 8 -3 3 7 -5 8 0 7 12 -4 11 -9 23 -14 26 -10 4 3
7 1 7 -6 0 -7 4 -9 10 -6 5 3 10 2 10 -3 0 -9 8 -11 60 -14 17 -1 30 -6 30
-12 0 -7 3 -8 8 -1 4 6 16 11 27 13 29 4 39 7 53 15 6 5 17 5 24 1 6 -4 8 -3
4 4 -3 6 -2 13 4 17 5 3 10 3 11 -2 5 -44 4 -61 -3 -57 -5 3 -6 -5 -3 -19 7
-26 -19 -62 -36 -52 -14 9 -11 -2 7 -19 14 -15 14 -16 -3 -16 -15 0 -16 -2 -3
-10 11 -7 11 -10 2 -10 -8 0 -10 -5 -6 -12 5 -8 0 -7 -11 2 -17 14 -18 14 -6
-7 7 -15 8 -23 1 -23 -5 0 -9 -3 -8 -7 4 -14 -13 -53 -22 -53 -5 0 -7 -6 -4
-14 3 -8 -3 -23 -13 -33 -10 -10 -17 -26 -15 -36 2 -9 -1 -17 -7 -17 -6 0 -15
-10 -22 -21 -8 -16 -8 -20 1 -14 8 5 8 1 -1 -13 -7 -12 -17 -18 -23 -15 -5 3
-6 1 -2 -5 3 -6 0 -16 -7 -24 -8 -7 -12 -19 -9 -27 3 -8 0 -11 -6 -7 -6 3 -13
-3 -17 -14 -3 -11 -11 -20 -16 -20 -6 0 -7 -4 -4 -10 3 -5 1 -10 -5 -10 -6 0
-8 -4 -5 -10 3 -5 1 -10 -5 -10 -6 0 -8 -4 -5 -10 3 -5 -1 -10 -10 -10 -9 0
-13 -4 -10 -10 3 -5 1 -10 -5 -10 -6 0 -9 -4 -6 -9 3 -5 -1 -11 -9 -15 -8 -3
-15 -12 -15 -21 0 -8 -5 -15 -11 -15 -5 0 -7 -4 -4 -10 3 -5 1 -10 -4 -10 -6
0 -10 -3 -10 -7 4 -22 -3 -33 -18 -33 -9 0 -14 -3 -10 -6 3 -4 -4 -15 -16 -25
-12 -10 -18 -18 -13 -19 6 0 1 -6 -10 -14 -10 -8 -19 -25 -19 -38 0 -16 -6
-22 -18 -20 -10 2 -22 -7 -28 -22 -7 -14 -15 -23 -20 -20 -4 2 -4 -9 1 -26 5
-18 5 -32 -1 -36 -5 -3 -6 -10 -3 -16 4 -7 2 -8 -5 -4 -13 9 -11 -59 3 -84 7
-12 7 -13 -5 -2 -14 13 -23 116 -10 108 4 -3 7 7 8 22 0 15 -1 19 -4 9 -3 -10
-10 -14 -16 -11 -7 4 -9 3 -4 -1 4 -5 -1 -17 -10 -28 -10 -11 -13 -17 -6 -14
8 5 12 -4 11 -33 0 -22 -4 -42 -8 -45 -4 -2 -6 -23 -5 -45 1 -22 -2 -43 -7
-46 -5 -3 -1 -16 9 -27 14 -18 12 -17 -10 2 -27 24 -39 17 -14 -8 10 -11 9
-12 -2 -6 -11 6 -13 4 -8 -9 4 -9 3 -15 -2 -11 -16 9 -19 -19 -4 -37 10 -11
11 -18 3 -23 -6 -3 -9 -3 -8 2 2 4 -1 9 -7 11 -5 1 -11 -7 -11 -18 -1 -11 -3
-23 -4 -27 -1 -5 -2 -11 -2 -15 1 -3 -5 -12 -13 -18 -8 -7 -15 -21 -15 -31 0
-10 -4 -20 -9 -24 -6 -3 -8 -14 -6 -24 2 -13 -2 -18 -18 -17 -12 0 -21 -4 -20
-11 2 -7 -6 -10 -17 -8 -11 2 -20 -2 -20 -8 0 -7 13 -13 29 -13 20 -1 28 2 25
11 -4 8 13 17 48 25 49 12 94 41 81 53 -2 3 3 4 14 3 10 -2 23 -1 28 3 6 3 17
6 25 8 20 3 63 26 72 38 4 5 8 6 8 2 0 -5 25 5 55 22 30 17 60 31 66 31 11 0
153 88 180 113 9 7 41 26 71 42 30 15 70 41 88 56 18 16 38 29 43 29 8 0 8 3
0 11 -8 8 -26 8 -65 0 -29 -6 -79 -9 -110 -6 -58 6 -120 26 -119 38 1 4 0 10
0 15 -12 81 35 164 171 307 32 33 79 85 104 115 25 30 51 60 58 67 13 12 41
44 168 188 34 39 69 81 78 95 9 14 28 39 42 56 53 64 70 89 70 100 0 6 16 32
36 58 19 26 45 68 56 94 11 26 26 54 33 62 7 8 29 62 50 120 20 58 43 121 51
140 7 19 13 65 14 102 0 37 8 89 17 115 14 40 16 86 16 270 -1 159 -5 228 -14
245 -7 12 -16 79 -20 148 -7 113 -12 149 -40 260 -22 90 -40 170 -50 220 -6
30 -19 69 -29 85 -10 17 -21 53 -25 80 -4 28 -17 68 -30 90 -12 22 -26 60 -30
85 -12 79 -68 223 -129 330 -8 14 -24 47 -36 73 -31 73 -44 57 -51 -64 -7
-109 -20 -161 -55 -219 -12 -19 -25 -44 -28 -55 -9 -27 -86 -83 -170 -123 -81
-38 -147 -42 -198 -13 -18 11 -52 25 -75 31 -40 12 -120 81 -147 128 -6 10
-20 35 -31 53 -19 32 -20 50 -18 299 2 228 5 271 20 310 26 66 26 595 0 715
-10 44 -20 121 -24 172 -4 69 -11 97 -24 112 -10 11 -21 32 -25 48 -4 15 -17
52 -30 81 -13 29 -24 56 -24 61 0 5 -9 19 -19 33 -11 13 -23 38 -27 54 -4 16
-20 46 -36 68 -15 21 -28 43 -28 47 0 32 -154 213 -194 227 -25 9 -37 23 -54
65 -12 28 -34 65 -49 82 -140 150 -233 244 -319 320 -143 126 -164 145 -188
157 -12 6 -33 23 -47 37 -66 65 -153 138 -185 154 -19 10 -38 25 -41 33 -3 8
-26 29 -52 46 -25 17 -62 44 -81 60 -19 16 -46 38 -60 49 -14 10 -43 34 -65
52 -44 37 -227 172 -307 227 -28 19 -67 49 -87 66 -20 17 -49 38 -66 47 -16 8
-43 27 -60 41 -35 30 -43 32 -52 10z m364 -1856 c-3 -8 -6 -5 -6 6 -1 11 2 17
5 13 3 -3 4 -12 1 -19z m-1149 -2184 c0 -13 -1 -24 -2 -22 -1 2 -8 12 -16 22
-10 13 -10 17 -2 12 6 -4 12 -3 12 1 0 5 -6 15 -12 23 -11 12 -10 12 3 2 9 -7
17 -24 17 -38z m-1514 -39 c-4 -10 0 -13 15 -10 15 3 18 0 14 -12 -4 -10 -2
-14 4 -10 6 4 17 -1 24 -10 10 -12 10 -14 2 -9 -17 10 -16 1 3 -36 12 -22 12
-28 2 -22 -10 6 -10 5 1 -9 7 -9 17 -14 22 -11 5 3 6 -3 2 -12 -4 -12 -3 -15
5 -10 8 5 10 2 6 -8 -4 -11 0 -14 13 -11 12 2 20 -2 20 -11 0 -10 -4 -11 -14
-3 -10 9 -13 8 -13 -2 -1 -8 -9 1 -19 20 -14 27 -19 30 -24 17 -5 -11 -3 -15
5 -10 8 5 9 2 5 -10 -4 -9 -3 -15 2 -12 5 3 12 -1 15 -10 3 -8 10 -12 16 -9 5
3 10 1 10 -5 0 -6 4 -9 8 -6 10 6 22 -3 42 -28 8 -11 10 -17 3 -13 -6 4 -14 3
-18 -3 -5 -9 7 -14 27 -11 4 0 4 -12 2 -26 l-5 -27 23 19 c15 13 18 14 10 3
-8 -10 -9 -18 -3 -22 6 -4 7 -14 4 -23 -4 -10 -2 -14 4 -10 7 5 9 -1 6 -15 -3
-17 -2 -19 5 -10 7 11 10 11 16 -3 3 -10 11 -13 18 -9 7 4 5 -2 -5 -13 -16
-19 -16 -20 0 -36 10 -8 23 -16 28 -16 6 -1 10 -11 10 -24 0 -12 4 -28 9 -36
6 -10 5 -12 -2 -7 -12 7 -14 1 -15 -41 0 -12 -3 -21 -7 -20 -5 1 -8 -2 -8 -8
0 -5 4 -9 9 -7 14 3 11 -4 -8 -19 -9 -8 -14 -9 -10 -3 4 7 0 17 -8 24 -8 7
-15 18 -15 25 0 7 -7 18 -15 25 -18 15 -20 -1 -3 -18 7 -7 8 -12 3 -12 -4 0 0
-10 11 -22 l19 -23 -22 19 c-12 10 -22 21 -21 25 2 16 -3 22 -13 16 -7 -5 -5
-16 6 -33 l16 -27 -22 25 c-12 14 -26 24 -31 22 -5 -1 -7 2 -4 7 4 5 2 12 -3
16 -6 3 -7 13 -4 22 4 11 3 14 -6 9 -12 -8 -11 -42 2 -63 4 -6 3 -15 -3 -18
-6 -4 -10 -3 -9 2 1 4 0 10 -1 13 -2 3 -3 19 -4 35 -1 17 -6 36 -10 43 -4 7
-4 17 -1 22 3 6 1 10 -5 10 -7 0 -9 -17 -6 -46 2 -25 1 -42 -3 -39 -3 4 -7 15
-7 26 -1 10 -2 28 -3 38 0 11 -7 18 -16 17 -9 -1 -15 -6 -14 -12 0 -5 4 -8 8
-7 4 1 8 -5 8 -13 0 -11 -4 -11 -19 3 -13 11 -15 20 -8 27 15 15 12 30 -4 17
-11 -9 -13 -7 -12 11 0 14 -4 22 -12 20 -6 -1 -11 4 -10 10 2 7 -4 12 -12 10
-12 -3 -13 -1 -2 9 18 20 14 33 -5 18 -16 -13 -17 -12 -4 4 13 16 8 22 -14 17
-5 -1 -4 4 3 11 6 7 12 20 12 28 0 11 -4 10 -16 -5 -15 -19 -15 -19 -5 1 7 15
5 25 -7 39 -11 13 -12 17 -3 11 11 -6 13 -4 8 9 -5 11 -3 15 4 10 7 -4 10 -1
7 7 -3 8 -11 13 -18 11 -10 -2 -11 0 -2 11 7 8 10 16 7 19 -3 3 -7 36 -9 73
-2 41 0 62 5 54 6 -10 9 -8 9 9 0 13 -3 21 -7 19 -5 -3 -8 6 -8 18 0 14 4 20
9 15 12 -12 17 -92 6 -85 -5 3 -7 -5 -4 -17 3 -13 5 -36 5 -53 0 -16 5 -35 11
-42 6 -7 7 -24 4 -37 -3 -14 -1 -28 4 -31 6 -4 7 -11 4 -17 -4 -6 -2 -8 4 -5
6 5 9 -1 6 -15 l-5 -23 10 23 c12 26 26 30 16 5 -12 -31 -14 -54 -5 -48 6 3 7
0 4 -8 -3 -8 3 -20 12 -28 16 -12 17 -12 9 1 -5 10 -1 8 13 -4 12 -10 19 -23
15 -29 -4 -6 -1 -7 7 -2 9 6 11 4 5 -6 -6 -11 -5 -12 6 -1 19 18 32 15 24 -5
-5 -14 -4 -15 6 -6 10 10 16 10 29 0 15 -11 0 2 -53 48 -13 11 -14 13 -3 5 19
-13 19 -13 9 0 -8 11 -9 20 -1 30 8 13 9 13 5 -1 -4 -13 1 -16 23 -14 39 3 49
12 43 38 -4 19 -3 20 7 4 9 -14 7 -23 -10 -47 -12 -17 -19 -30 -16 -30 2 0 14
14 26 30 l22 31 -24 34 c-12 19 -27 35 -33 35 -5 0 -3 5 5 11 13 9 13 10 -1 6
-13 -4 -16 1 -14 24 2 18 -1 26 -8 22 -6 -4 -7 -1 -2 8 7 12 6 12 -7 1 -13
-10 -17 -10 -21 0 -3 8 -6 8 -6 2 -1 -6 6 -17 14 -24 12 -10 13 -16 4 -26 -9
-12 -15 -12 -27 -2 -11 9 -14 9 -9 1 4 -6 3 -14 -3 -18 -5 -3 -10 0 -10 7 0 9
-3 9 -10 -2 -10 -15 -10 -13 -10 35 0 3 3 4 8 3 4 -2 6 -7 4 -11 -1 -5 2 -6 8
-2 8 5 7 11 -1 21 -8 10 -15 11 -24 4 -6 -5 -16 -6 -20 -2 -5 4 -5 2 -2 -4 4
-6 0 -20 -8 -30 -14 -18 -15 -17 -9 11 9 40 13 47 26 39 7 -4 8 -2 4 5 -4 6
-12 9 -17 6 -5 -4 -9 0 -9 7 0 9 -3 9 -10 -2 -8 -12 -10 -10 -10 8 0 15 4 21
12 16 6 -4 8 -3 4 4 -3 6 -2 13 4 17 6 4 8 10 6 14 -12 19 -28 140 -20 152 8
14 14 11 8 -6z m1501 -44 c3 -5 2 -12 -3 -15 -5 -3 -9 1 -9 9 0 17 3 19 12 6z
m5 -75 c0 -12 -5 -7 -19 24 -11 24 -11 24 3 6 9 -11 16 -24 16 -30z m-1508
-40 c-3 -5 -9 -1 -12 10 -4 10 -5 23 -2 28 3 5 9 1 12 -10 4 -10 5 -23 2 -28z
m58 -142 c8 0 21 4 28 9 6 5 12 6 12 2 0 -5 10 0 23 11 12 10 19 15 14 10 -4
-5 3 -20 15 -33 19 -21 34 -78 17 -67 -4 2 -10 -2 -12 -8 -3 -7 -4 4 -2 25 1
20 -2 40 -8 44 -5 3 -7 1 -3 -5 3 -6 2 -13 -4 -17 -6 -3 -10 4 -11 17 -1 23
-1 23 -9 -2 -5 -16 -8 -19 -9 -8 -2 33 -16 25 -18 -11 -1 -27 1 -31 7 -16 6
13 9 15 9 5 0 -8 -4 -22 -9 -30 -9 -13 -10 -13 -10 0 0 13 -1 13 -10 0 -6 -10
-3 -22 13 -40 19 -22 18 -22 -9 3 -17 15 -34 24 -39 20 -4 -5 -5 0 -2 9 3 10
2 20 -3 23 -6 4 -6 14 1 26 11 21 6 34 -12 34 -10 0 -10 11 -1 35 4 11 8 8 12
-10 3 -14 12 -25 20 -26z m85 -53 c-2 -9 -4 -20 -4 -26 -2 -13 -21 16 -21 31
0 6 6 11 14 11 7 0 12 -7 11 -16z m132 -66 c0 -8 -4 -12 -9 -9 -5 3 -6 10 -3
15 9 13 12 11 12 -6z m95 -108 c-5 -7 -8 -20 -6 -30 1 -11 1 -17 -1 -15 -2 1
-4 8 -5 13 -1 6 -7 16 -13 23 -8 10 -7 12 4 10 8 -2 13 3 11 10 -1 8 2 11 8 7
7 -4 8 -11 2 -18z m-328 -5 c3 -5 -1 -9 -9 -9 -8 0 -12 4 -9 9 3 4 7 8 9 8 2
0 6 -4 9 -8z m35 -5 c8 -10 7 -14 -2 -14 -8 0 -14 6 -14 14 0 7 1 13 2 13 2 0
8 -6 14 -13z m255 -10 c4 -28 27 -48 42 -36 8 6 11 16 7 22 -4 6 -1 7 6 2 9
-5 6 -15 -13 -34 -15 -15 -23 -31 -19 -36 5 -4 2 -5 -5 0 -10 5 -11 10 -3 18
8 8 6 16 -6 29 -15 17 -32 70 -17 56 3 -3 6 -13 8 -21z m-4 -62 c-5 -5 -9 -14
-10 -20 -1 -5 -3 -12 -5 -13 -6 -7 0 23 8 35 4 6 3 14 -2 17 -5 4 -11 0 -14
-6 -2 -7 -4 -1 -4 14 l0 27 17 -22 c10 -12 15 -26 10 -32z m-235 36 c-9 -8
-36 -10 -30 -2 2 4 11 8 20 8 8 0 13 -3 10 -6z m82 -30 c0 -11 -5 -18 -9 -15
-4 3 -5 11 -1 19 7 21 12 19 10 -4z m290 4 c0 -8 -4 -12 -9 -9 -5 3 -6 10 -3
15 9 13 12 11 12 -6z m-57 -10 c11 7 7 -22 -5 -32 -4 -4 -5 -3 -1 4 3 6 2 14
-4 18 -5 3 -10 12 -9 18 0 9 2 8 6 -1 2 -6 8 -10 13 -7z m91 2 c-6 -8 -7 -18
-3 -22 4 -5 1 -5 -6 -1 -10 6 -10 11 -1 22 6 8 14 14 16 14 3 0 0 -6 -6 -13z
m-436 -6 c-9 -8 -36 -10 -30 -2 2 4 11 8 20 8 8 0 13 -3 10 -6z m379 -7 c3 -8
2 -12 -4 -9 -6 3 -10 10 -10 16 0 14 7 11 14 -7z m-147 -9 c0 -8 -4 -12 -9 -9
-5 3 -6 10 -3 15 9 13 12 11 12 -6z m89 -11 c1 -9 0 -13 -4 -10 -3 4 -7 14 -8
22 -1 9 0 13 4 10 3 -4 7 -14 8 -22z m-109 -19 c0 -8 -4 -12 -9 -9 -5 3 -6 10
-3 15 9 13 12 11 12 -6z m4067 7 c3 -5 -1 -9 -9 -9 -8 0 -12 4 -9 9 3 4 7 8 9
8 2 0 6 -4 9 -8z m-4024 -7 c0 -2 -6 -8 -13 -14 -10 -8 -14 -7 -14 2 0 8 6 14
14 14 7 0 13 -1 13 -2z m3657 -10 c0 -8 -4 -12 -9 -9 -5 3 -6 10 -3 15 9 13
12 11 12 -6z m-3844 -29 c11 1 16 0 12 -4 -10 -10 -75 -9 -82 1 -3 6 -1 7 5 3
6 -3 14 -2 17 4 4 7 11 7 18 2 7 -5 20 -8 30 -6z m-83 -2 c0 -8 -19 -13 -24
-6 -3 5 1 9 9 9 8 0 15 -2 15 -3z m5 -43 c3 -5 2 -12 -3 -15 -5 -3 -9 1 -9 9
0 17 3 19 12 6z m1042 -8 c-4 -3 -1 -13 6 -22 11 -14 10 -14 -5 -2 -16 12 -16
31 -1 31 4 0 3 -3 0 -7z m-70 -70 c-4 -3 -1 -13 6 -22 11 -14 10 -14 -5 -2
-16 12 -16 31 -1 31 4 0 3 -3 0 -7z m-42 -22 c3 -5 2 -12 -3 -15 -5 -3 -9 1
-9 9 0 17 3 19 12 6z m10 -38 c-1 -10 0 -22 4 -28 3 -5 6 -14 6 -20 0 -12 26
-14 42 -3 6 5 14 5 18 -2 4 -6 3 -9 -2 -8 -4 2 -8 -1 -8 -7 0 -5 4 -9 9 -7 5
2 4 -3 -2 -11 -7 -8 -9 -16 -6 -19 3 -3 1 -9 -5 -12 -6 -4 -8 2 -6 13 2 11 -3
25 -11 32 -8 6 -14 8 -14 4 0 -4 -7 -2 -15 5 -8 7 -13 16 -10 20 3 5 1 11 -4
14 -7 5 -8 23 -2 44 4 10 9 -2 6 -15z m309 -13 c-6 -6 -10 -3 -10 10 0 13 4
16 10 10 7 -7 7 -13 0 -20z m-279 11 c3 -5 2 -12 -3 -15 -5 -3 -9 1 -9 9 0 17
3 19 12 6z m-698 -38 c-3 -10 -5 -4 -5 12 0 17 2 24 5 18 2 -7 2 -21 0 -30z
m850 -20 c-4 -3 -1 -13 6 -22 11 -14 10 -14 -5 -2 -16 12 -16 31 -1 31 4 0 3
-3 0 -7z m-236 -20 c13 -16 12 -17 -3 -4 -10 7 -18 15 -18 17 0 8 8 3 21 -13z
m176 -31 c-15 -16 -24 -32 -20 -37 5 -4 2 -5 -5 -1 -11 7 -10 11 2 25 9 10 13
21 9 26 -5 4 -3 5 4 1 6 -3 14 -2 18 4 3 5 9 10 12 10 4 0 -5 -13 -20 -28z
m-921 -27 c-1 -8 -5 -17 -8 -21 -5 -4 -4 16 1 34 3 9 9 -1 7 -13z m287 -25 c9
-10 9 -11 0 -6 -7 4 -13 2 -13 -3 0 -6 5 -11 10 -11 6 0 10 -6 10 -12 -1 -7
-10 -2 -22 12 -11 14 -25 24 -30 22 -5 -1 -7 2 -4 7 8 12 33 8 49 -9z m444 1
c0 -11 -5 -18 -9 -15 -4 3 -5 11 -1 19 7 21 12 19 10 -4z m209 -8 c-10 -11
-19 -7 -22 10 -2 15 0 16 12 6 8 -6 12 -14 10 -16z m-195 -26 c-10 -9 -11 -8
-5 6 3 10 9 15 12 12 3 -3 0 -11 -7 -18z m-21 -3 c0 -8 -19 -13 -24 -6 -3 5 1
9 9 9 8 0 15 -2 15 -3z m-257 -69 c-3 -9 -8 -14 -10 -11 -3 3 -2 9 2 15 9 16
15 13 8 -4z m217 -13 c0 -5 -7 -9 -15 -9 -8 0 -12 4 -9 9 3 4 9 8 15 8 5 0 9
-4 9 -8z m-583 -442 c-5 -29 -13 -33 -13 -5 0 14 4 25 8 25 4 0 7 -9 5 -20z
m163 -436 c0 -8 -19 -13 -24 -6 -3 5 1 9 9 9 8 0 15 -2 15 -3z m4010 -588 c0
-2 -7 -7 -16 -10 -8 -3 -12 -2 -9 4 6 10 25 14 25 6z m-94 -119 c0 -13 -6 -24
-13 -24 -8 0 -8 7 0 24 13 29 15 29 13 0z m-3541 -135 c0 -11 8 -17 23 -16 17
1 20 -2 12 -11 -11 -13 11 -41 23 -29 4 4 4 -3 2 -16 -5 -27 12 -63 26 -55 5
4 9 1 9 -4 0 -22 2 -26 16 -42 12 -14 12 -18 -6 -34 -19 -17 -19 -19 -4 -37
10 -10 14 -18 10 -18 -4 0 -2 -9 4 -19 7 -14 7 -22 0 -26 -8 -5 -7 -11 1 -21
6 -8 8 -14 4 -14 -5 0 0 -9 9 -19 12 -13 14 -21 6 -26 -8 -5 -7 -11 2 -22 7
-9 11 -26 10 -39 -2 -13 0 -29 4 -36 12 -19 14 -57 3 -63 -5 -3 -6 2 -2 11 4
12 3 15 -5 10 -8 -5 -10 -1 -5 11 6 16 5 17 -13 3 -17 -14 -18 -14 -6 2 9 11
10 18 2 23 -5 3 -10 21 -10 38 0 23 -3 28 -9 18 -5 -8 -8 -22 -6 -31 2 -9 -3
-17 -11 -17 -9 0 -11 4 -4 12 7 9 6 16 -4 24 -8 7 -13 23 -10 37 3 15 1 23 -5
20 -10 -7 -7 32 4 42 2 3 0 11 -7 19 -9 11 -14 11 -28 -2 -14 -13 -17 -13 -17
-1 0 8 5 14 11 13 5 -1 10 6 11 16 0 9 -4 16 -10 15 -5 -2 -9 -7 -7 -12 2 -5
-4 -4 -12 4 -9 7 -16 15 -16 18 0 3 3 2 7 -1 8 -8 33 11 33 25 0 6 -8 4 -17
-3 -15 -11 -16 -11 -6 1 11 11 9 18 -10 38 -12 13 -17 23 -12 22 24 -5 27 2 9
23 l-19 22 22 -19 c17 -14 20 -22 12 -32 -6 -8 -6 -14 0 -18 18 -11 24 34 7
53 -15 16 -15 19 -1 31 8 7 15 17 15 23 0 6 -10 1 -23 -11 -17 -17 -24 -18
-24 -8 0 8 5 14 11 13 17 -3 12 37 -8 61 -11 12 -16 22 -11 22 4 0 0 10 -11
22 -19 22 -19 22 0 8 18 -14 19 -13 14 2 -7 17 1 32 11 22 3 -3 6 -13 6 -22z
m3480 -51 c3 -5 2 -12 -3 -15 -5 -3 -9 1 -9 9 0 17 3 19 12 6z m-35 -157 c0
-8 -19 -13 -24 -6 -3 5 1 9 9 9 8 0 15 -2 15 -3z m-39 -77 c-10 -9 -11 -8 -5
6 3 10 9 15 12 12 3 -3 0 -11 -7 -18z m-1 -20 c0 -2 -10 -12 -22 -23 l-23 -19
19 23 c18 21 26 27 26 19z m-3359 -50 c-10 -9 -11 -8 -5 6 3 10 9 15 12 12 3
-3 0 -11 -7 -18z m141 -185 c3 -11 0 -19 -7 -19 -7 0 -10 8 -7 19 2 10 6 18 7
18 1 0 5 -8 7 -18z m64 -60 c2 -10 -1 -11 -12 -1 -8 6 -14 18 -14 25 0 8 -5
14 -11 14 -5 0 -7 5 -4 11 7 11 38 -25 41 -49z"/>
<path d="M2069 3910 c-1 -8 0 -19 1 -25 1 -5 3 -15 4 -22 1 -7 6 -16 11 -20 4
-4 5 -3 1 4 -3 6 -2 14 4 18 9 6 14 -8 11 -28 -1 -5 3 -6 9 -2 7 4 7 12 0 26
-6 11 -8 25 -4 31 4 6 3 8 -4 4 -6 -3 -15 2 -21 11 -8 14 -11 15 -12 3z m19
-35 c-3 -3 -9 2 -12 12 -6 14 -5 15 5 6 7 -7 10 -15 7 -18z"/>
<path d="M2105 3741 c-3 -5 -2 -12 3 -15 5 -3 9 1 9 9 0 17 -3 19 -12 6z"/>
<path d="M2134 3726 c1 -8 5 -18 8 -22 4 -3 5 1 4 10 -1 8 -5 18 -8 22 -4 3
-5 -1 -4 -10z"/>
<path d="M2247 3524 c-10 -13 -23 -22 -28 -18 -7 4 -7 10 0 18 7 9 4 12 -14
12 -14 0 -25 -1 -25 -2 0 -2 17 -19 37 -38 37 -35 41 -65 4 -32 -20 18 -28 13
-27 -19 1 -11 8 -20 16 -20 8 0 15 -8 15 -17 0 -10 5 -22 12 -29 8 -8 14 -6
23 11 11 21 12 21 31 4 10 -9 19 -24 19 -32 0 -11 3 -12 14 -3 8 7 15 20 15
29 0 9 2 34 5 55 5 35 4 37 -11 25 -9 -7 -14 -8 -10 -2 4 6 -2 19 -13 29 -14
13 -17 22 -9 31 7 8 7 14 -1 19 -9 6 -15 -16 -10 -40 1 -5 -2 -7 -6 -2 -4 4
-15 0 -24 -8 -14 -13 -17 -13 -17 0 0 8 5 11 10 8 6 -4 7 -1 2 7 -6 9 -4 11 5
5 9 -6 11 -4 5 5 -5 9 -4 11 3 6 7 -4 12 -1 12 8 0 23 -12 19 -33 -10z m57
-59 c1 -15 8 -31 16 -37 12 -8 12 -9 -2 -4 -12 3 -18 0 -18 -9 0 -8 6 -13 13
-11 6 1 8 1 4 -2 -4 -2 -2 -11 5 -20 8 -11 5 -10 -10 3 -14 11 -21 26 -19 37
3 10 1 21 -4 24 -5 3 -9 -1 -9 -9 0 -8 -6 -20 -14 -26 -11 -9 -18 -6 -34 14
-14 17 -22 21 -25 13 -3 -7 -4 -2 -4 10 1 24 2 24 24 -5 15 -18 23 -23 23 -13
0 13 1 13 10 0 14 -22 13 5 -1 32 -7 12 -7 18 -1 14 6 -3 13 0 16 6 3 7 3 2
-1 -12 -5 -22 -4 -23 10 -12 9 8 13 21 10 30 -3 9 -3 14 2 10 4 -4 9 -19 9
-33z"/>
<path d="M2098 3519 c12 -14 19 -29 15 -34 -5 -4 -3 -5 4 -1 6 3 16 -2 22 -11
6 -10 11 -13 11 -7 0 6 -3 14 -7 18 -5 4 -8 12 -8 17 0 5 -3 8 -6 7 -4 -2 -17
6 -30 17 l-24 20 23 -26z"/>
<path d="M2165 3479 c-4 -6 -5 -12 -2 -15 2 -3 7 2 10 11 7 17 1 20 -8 4z"/>
<path d="M2116 3607 c-3 -15 -3 -35 2 -44 8 -13 12 -9 22 21 6 21 9 40 6 43
-3 4 -6 -2 -7 -13 0 -18 -1 -18 -8 1 -7 17 -8 17 -15 -8z m11 -29 c-3 -8 -6
-5 -6 6 -1 11 2 17 5 13 3 -3 4 -12 1 -19z"/>
<path d="M2884 1026 c1 -8 9 -23 18 -33 8 -10 13 -25 11 -33 -4 -12 -3 -12 5
-2 7 11 11 10 16 -4 4 -10 1 -24 -8 -33 -14 -13 -14 -17 1 -33 13 -15 14 -23
5 -43 -8 -16 -8 -26 -1 -31 6 -3 8 -12 5 -20 -3 -7 -1 -16 5 -19 5 -4 7 -10 4
-14 -2 -5 4 -16 15 -26 15 -13 17 -22 10 -36 -7 -12 -7 -20 0 -24 6 -3 8 -17
6 -30 -3 -14 0 -27 5 -30 5 -4 10 -3 10 2 7 39 12 97 9 103 -1 3 -3 21 -4 41
-1 20 -7 43 -13 50 -9 11 -8 18 2 32 14 19 10 32 -29 89 -10 15 -15 31 -12 36
3 5 -3 17 -14 27 -11 10 -17 23 -13 29 3 6 3 8 -2 4 -4 -4 -14 -3 -21 3 -9 7
-12 6 -10 -5z m36 -31 c13 -14 21 -25 18 -25 -2 0 -15 11 -28 25 -13 14 -21
25 -18 25 2 0 15 -11 28 -25z m53 -105 c12 -24 13 -32 2 -47 -10 -14 -11 -21
-2 -32 6 -7 12 -28 12 -45 1 -17 4 -36 6 -41 3 -6 2 -21 -2 -35 -9 -25 -9 -25
-5 2 2 16 -3 33 -10 39 -7 6 -16 26 -20 45 -3 19 -10 37 -16 40 -5 3 -4 11 2
19 15 18 3 78 -13 68 -7 -4 -6 1 2 10 16 20 25 16 44 -23z"/>
<path d="M2952 889 c8 -23 8 -37 0 -49 -6 -10 -8 -21 -4 -25 4 -4 12 -23 19
-43 l12 -37 -5 35 c-4 19 -10 39 -15 44 -5 6 -4 15 2 22 12 14 3 70 -11 79 -5
3 -4 -9 2 -26z"/>
<path d="M3007 670 c-3 -11 -1 -23 4 -26 5 -3 9 -20 9 -38 0 -20 7 -39 18 -47
14 -11 15 -11 5 1 -7 8 -13 29 -13 46 0 18 -4 35 -9 38 -5 3 -7 15 -4 26 3 11
3 20 0 20 -2 0 -7 -9 -10 -20z"/>
<path d="M4766 6672 c-3 -5 1 -9 9 -9 8 0 12 4 9 9 -3 4 -7 8 -9 8 -2 0 -6 -4
-9 -8z"/>
<path d="M4635 5939 c-4 -6 -5 -12 -2 -15 2 -3 7 2 10 11 7 17 1 20 -8 4z"/>
<path d="M4566 5834 c-5 -14 -4 -15 9 -4 17 14 19 20 6 20 -5 0 -12 -7 -15
-16z"/>
<path d="M4119 5253 c-13 -16 -12 -17 4 -4 9 7 17 15 17 17 0 8 -8 3 -21 -13z"/>
<path d="M4021 5107 c-13 -21 -12 -21 5 -5 10 10 16 20 13 22 -3 3 -11 -5 -18
-17z"/>
<path d="M3779 4673 c-13 -16 -12 -17 4 -4 16 13 21 21 13 21 -2 0 -10 -8 -17
-17z"/>
<path d="M3726 4553 c-6 -14 -5 -15 5 -6 7 7 10 15 7 18 -3 3 -9 -2 -12 -12z"/>
<path d="M5736 4407 c3 -10 9 -15 12 -12 3 3 0 11 -7 18 -10 9 -11 8 -5 -6z"/>
<path d="M5695 4100 c6 -30 16 -40 12 -12 -2 12 -6 24 -10 28 -3 4 -4 -4 -2
-16z"/>
<path d="M5720 3591 c0 -6 4 -13 10 -16 6 -3 7 1 4 9 -7 18 -14 21 -14 7z"/>
<path d="M6453 3308 c-10 -17 -14 -42 -5 -33 4 4 7 12 7 18 1 7 7 11 14 9 7
-1 10 2 6 8 -8 13 -12 13 -22 -2z"/>
<path d="M6147 3217 c3 -4 8 -6 11 -3 3 3 10 1 17 -4 8 -7 12 -6 12 3 0 7 -11
13 -23 13 -12 0 -20 -4 -17 -9z"/>
<path d="M6200 3221 c0 -6 4 -13 10 -16 6 -3 7 1 4 9 -7 18 -14 21 -14 7z"/>
<path d="M6226 3218 c3 -5 10 -6 15 -3 13 9 11 12 -6 12 -8 0 -12 -4 -9 -9z"/>
<path d="M2276 3131 c-3 -4 -1 -13 5 -21 7 -13 9 -13 9 0 0 13 1 13 10 0 6
-10 10 -11 10 -2 0 6 1 15 3 19 3 9 -32 13 -37 4z"/>
<path d="M2263 3033 c0 -9 4 -10 14 -2 7 6 13 12 13 14 0 1 -6 2 -13 2 -8 0
-14 -6 -14 -14z"/>
<path d="M3069 2937 c-1 -4 -2 -15 -3 -25 0 -11 -7 -26 -14 -34 -10 -13 -9
-18 4 -29 15 -12 16 -11 10 11 -6 21 -5 22 4 7 9 -13 9 -22 0 -32 -6 -7 -7
-16 -2 -19 5 -3 14 6 21 20 6 14 16 22 22 19 6 -4 1 13 -11 36 -25 49 -29 55
-31 46z m25 -63 c3 -8 2 -12 -4 -9 -6 3 -10 10 -10 16 0 14 7 11 14 -7z"/>
<path d="M2654 2788 c-4 -7 -4 -10 1 -6 4 4 14 0 22 -10 13 -15 13 -15 3 6
-12 25 -16 27 -26 10z"/>
<path d="M2269 2753 c-13 -16 -12 -17 4 -4 16 13 21 21 13 21 -2 0 -10 -8 -17
-17z"/>
<path d="M2386 2158 c3 -5 10 -6 15 -3 13 9 11 12 -6 12 -8 0 -12 -4 -9 -9z"/>
<path d="M2445 2101 c-3 -5 -2 -12 3 -15 5 -3 9 1 9 9 0 17 -3 19 -12 6z"/>
<path d="M2419 2088 c-5 -19 -8 -50 -4 -46 7 7 15 48 9 48 -2 0 -4 -1 -5 -2z"/>
<path d="M2453 2038 c-5 -7 -10 -24 -11 -37 0 -13 0 -22 1 -20 2 2 9 13 17 23
10 13 10 17 3 12 -16 -9 -17 6 -1 22 7 7 9 12 6 12 -3 0 -10 -6 -15 -12z"/>
<path d="M2625 1561 c-3 -5 -2 -12 3 -15 5 -3 9 1 9 9 0 17 -3 19 -12 6z"/>
<path d="M6336 1064 c-3 -8 -10 -13 -14 -10 -5 3 -8 -5 -8 -17 1 -16 -4 -22
-20 -21 -21 1 -25 -9 -13 -31 3 -5 4 -16 3 -22 -1 -7 -2 -18 -3 -24 0 -5 -5
-8 -10 -4 -6 3 -8 14 -6 24 2 10 -3 18 -11 18 -10 0 -11 -4 -3 -14 6 -7 8 -13
4 -13 -5 0 -1 -8 7 -17 8 -10 13 -24 12 -30 -1 -7 -2 -18 -3 -24 0 -5 -5 -8
-10 -4 -6 3 -8 14 -6 25 2 11 0 22 -4 24 -10 6 -8 -40 2 -50 4 -4 2 -13 -4
-21 -8 -9 -8 -17 0 -26 6 -8 8 -17 4 -20 -3 -4 -12 1 -20 11 -13 15 -13 15 -4
-4 6 -12 7 -25 3 -29 -4 -3 -7 -11 -7 -16 0 -5 -4 -8 -10 -6 -5 1 -9 6 -7 10
1 5 -3 5 -9 2 -8 -5 -6 -12 4 -22 12 -12 13 -22 5 -44 -5 -16 -14 -29 -20 -29
-5 0 -6 4 -3 10 10 17 14 49 6 54 -4 3 -8 -5 -8 -17 -3 -45 -21 -89 -35 -81
-5 3 -4 13 4 22 12 15 11 16 -5 3 -11 -9 -14 -18 -8 -25 5 -6 5 -20 0 -31 -5
-14 -8 -16 -9 -5 -2 8 -2 19 -1 23 1 5 -3 6 -8 2 -6 -3 -7 -13 -4 -22 5 -12 3
-14 -8 -8 -8 4 -11 5 -7 0 4 -4 3 -14 -4 -22 -6 -7 -8 -16 -4 -20 3 -3 6 -2 6
3 0 6 14 9 30 8 17 -1 33 2 36 7 3 5 11 6 17 3 7 -4 8 -3 4 2 -5 5 -14 9 -20
9 -7 0 -12 9 -12 20 0 11 5 20 12 20 17 0 26 12 46 58 16 38 16 25 0 -27 -4
-13 -2 -17 6 -12 6 4 9 11 6 16 -3 5 -1 11 5 15 5 3 10 14 10 24 0 10 7 24 15
31 8 7 13 16 10 20 -3 5 -1 11 4 14 5 4 8 14 6 24 -1 9 2 23 8 30 5 6 6 12 3
12 -4 0 -2 9 4 21 7 11 13 35 16 52 2 17 8 35 13 40 6 6 8 2 4 -13 -4 -14 -2
-21 4 -17 5 3 9 23 8 44 -1 21 2 43 6 48 6 9 10 65 4 65 -2 0 -6 -7 -9 -16z
m-6 -49 c-7 -8 -10 -21 -7 -29 3 -8 -1 -20 -9 -26 -8 -7 -14 -19 -14 -26 0 -8
-5 -14 -10 -14 -7 0 -6 8 1 23 13 23 13 25 -2 44 -7 7 -6 14 1 18 5 3 10 -2
11 -12 0 -10 7 -2 17 20 9 20 18 33 20 27 2 -6 -2 -17 -8 -25z m-45 -146 c-9
-16 -13 -29 -10 -29 4 0 3 -5 -1 -11 -4 -7 -10 -7 -16 -1 -7 7 -4 19 11 37 11
15 18 32 14 38 -3 6 -1 7 5 3 9 -5 8 -15 -3 -37z m-20 -76 c-2 -10 -4 -19 -4
-20 -1 -2 -1 -6 -2 -10 -2 -15 -21 -33 -31 -27 -5 3 -4 12 3 20 6 8 8 14 4 14
-5 0 0 9 10 20 22 24 24 25 20 3z m-83 -145 c-7 -7 -12 -8 -12 -2 0 14 12 26
19 19 2 -3 -1 -11 -7 -17z m-28 -59 c3 -3 -5 -5 -19 -5 -13 0 -22 3 -19 7 4 8
30 6 38 -2z"/>
<path d="M6286 1042 c-3 -5 1 -9 9 -9 8 0 12 4 9 9 -3 4 -7 8 -9 8 -2 0 -6 -4
-9 -8z"/>
<path d="M2996 961 c-3 -4 4 -17 17 -27 22 -19 22 -19 4 2 -9 11 -14 24 -10
27 3 4 4 7 0 7 -3 0 -8 -4 -11 -9z"/>
<path d="M3016 831 c-3 -5 2 -15 12 -22 15 -12 16 -12 5 2 -7 9 -10 19 -6 22
3 4 4 7 0 7 -3 0 -8 -4 -11 -9z"/>
<path d="M3064 593 c1 -7 8 -19 16 -26 12 -10 12 -9 2 4 -8 10 -8 19 -1 26 6
6 5 10 -5 10 -7 0 -13 -6 -12 -14z"/>
<path d="M6063 569 c-2 -23 3 -25 10 -4 4 8 3 16 -1 19 -4 3 -9 -4 -9 -15z"/>
<path d="M3103 555 c0 -8 4 -12 9 -9 5 3 6 10 3 15 -9 13 -12 11 -12 -6z"/>
<path d="M3214 425 c1 -8 8 -21 16 -28 12 -10 12 -9 2 4 -6 9 -9 18 -6 21 3 3
1 9 -4 12 -6 3 -9 -1 -8 -9z"/>
<path d="M3270 377 c0 -2 6 -10 14 -16 11 -9 16 -9 22 1 4 7 4 10 -1 6 -4 -4
-14 -3 -22 3 -7 6 -13 9 -13 6z"/>
</g>
</svg>
